<svg width="279" height="272" viewBox="0 0 279 272" fill="none" xmlns="http://www.w3.org/2000/svg">
<g opacity="0.47">
<path d="M-153.753 -67.2971C-152.139 -53.2321 -151.059 -37.0981 -139.802 -28.5111C-133.262 -23.5221 -124.619 -22.3271 -117.344 -18.4891C-89.784 -3.94705 -91.393 41.0659 -63.992 55.9019C-50.284 63.3239 -31.686 61.4409 -20.974 72.7659C-13.213 80.9709 -12.134 93.8349 -4.483 102.142C11.942 119.975 47.106 106.77 62.245 125.707C68.053 132.973 70.084 140.802 79.249 144.178C89.135 147.819 98.139 142.784 107.965 150.486C116.631 157.278 121.241 168.894 119.593 179.78C130.396 177.883 141.403 175.979 152.276 177.419C163.149 178.859 174.067 184.196 179.541 193.7C181.642 197.348 182.998 201.627 186.273 204.272C190.871 207.984 197.473 207.189 203.364 206.72C220.956 205.32 238.905 208.694 254.788 216.387C262.524 220.134 269.994 225.106 274.604 232.36C279.214 239.615 280.383 249.534 275.687 256.734C272.027 262.346 265.51 265.471 258.998 267.05C227.884 274.596 196.767 252.743 164.768 253.789C143.388 254.488 122.48 265.429 101.438 261.574C98.51 261.038 95.525 260.215 92.604 260.782C88.533 261.573 85.492 264.849 82.017 267.114C72.176 273.528 59.295 271.622 47.776 269.324C9.59302 261.706 -27.587 242.452 -67.137 242.814C-82.917 242.959 -92.675 251.68 -107.755 256.244C-125.436 261.596 -144.684 261.965 -162.449 256.778C-191.551 248.28 -215.946 225.081 -225.894 196.442C-225.095 198.742 -266.593 193.528 -270.263 192.289C-285.699 187.077 -298.724 178.215 -310.407 167.027C-333.455 144.954 -359.003 126.982 -381.405 103.587C-403.932 80.0609 -426.989 55.7269 -439.004 25.4519C-458.708 -24.2011 -445.106 -81.2921 -420.912 -128.919C-398.185 -173.656 -326.425 -288.971 -263.359 -249.164C-235.845 -231.797 -213.771 -193.187 -194.742 -167.505C-172.76 -137.837 -157.987 -104.193 -153.753 -67.2971Z" fill="url(#paint0_linear_7_96)"/>
<path d="M166.419 238.181C149.539 238.166 128.54 241.442 108.578 235.455C90.468 229.675 67.424 217.716 70.121 193.634C58.591 196.094 44.794 202.052 34.094 197.102C27.099 192.567 26.077 184.95 28.966 175.895C19.496 176.71 9.19702 184.935 13.924 192.967C17.006 198.939 21.941 205.119 28.936 209.654C35.724 216.041 27.276 224.474 21.512 225.704C-1.54697 230.624 -29.319 210.633 -24.563 184.906C-34.655 191.278 -47.207 186.121 -53.787 177.882C-53.58 176.03 -53.165 172.325 -52.957 170.472C-44.925 165.744 -37.1 162.869 -27.423 160.202C-41.62 152.985 -54.988 138.358 -68.785 144.316C-76.61 147.191 -85.264 157.476 -93.904 150.881C-104.396 144.079 -106.649 130.697 -103.344 117.937C-122.091 134.594 -104.203 159.106 -112.043 178.861C-116.578 185.856 -129.96 188.109 -140.66 183.159C-158.355 173.675 -167.602 155.758 -163.468 135.588C-171.293 138.463 -177.473 143.398 -182.408 137.218C-194.338 126.504 -196.176 109.416 -192.456 92.9519C-242.071 100.525 -256.225 42.6689 -246.311 4.38992C-280.678 -6.96208 -297.113 -44.4401 -285.762 -78.8071C-271.234 -125.944 -240.42 -156.93 -202.26 -178.015C-219.554 -202.795 -239.392 -234.037 -263.357 -249.164C-326.423 -288.971 -398.183 -173.656 -420.91 -128.919C-445.105 -81.2921 -458.707 -24.2001 -439.003 25.4519C-426.989 55.7269 -403.932 80.062 -381.404 103.587C-359.002 126.982 -333.455 144.954 -310.406 167.027C-298.723 178.215 -285.698 187.077 -270.262 192.289C-266.592 193.528 -225.094 198.743 -225.893 196.442C-215.945 225.081 -191.55 248.28 -162.448 256.778C-144.684 261.965 -125.435 261.596 -107.754 256.244C-92.674 251.68 -82.916 242.959 -67.136 242.814C-27.586 242.452 9.59406 261.706 47.777 269.324C59.297 271.622 72.178 273.528 82.018 267.114C85.492 264.85 88.533 261.573 92.605 260.782C95.527 260.215 98.512 261.037 101.44 261.574C122.482 265.428 143.389 254.488 164.77 253.789C196.769 252.743 227.886 274.596 259 267.05C265.512 265.471 272.029 262.346 275.689 256.734C277.14 254.51 278.028 252.025 278.43 249.44C246.193 264.93 200.782 237.356 166.419 238.181Z" fill="url(#paint1_linear_7_96)"/>
</g>
<defs>
<linearGradient id="paint0_linear_7_96" x1="-66.4308" y1="48.9177" x2="-337.368" y2="384.089" gradientUnits="userSpaceOnUse">
<stop stop-color="#F3B2E6"/>
<stop offset="1" stop-color="#EC4E50"/>
</linearGradient>
<linearGradient id="paint1_linear_7_96" x1="349.703" y1="-103.096" x2="-467.523" y2="135.666" gradientUnits="userSpaceOnUse">
<stop stop-color="#F3B2E6"/>
<stop offset="1" stop-color="#EC4E50"/>
</linearGradient>
</defs>
</svg>
