<svg width="415" height="227" viewBox="0 0 415 227" fill="none" xmlns="http://www.w3.org/2000/svg">
<g opacity="0.47">
<path d="M752.034 -298.143C746.907 -275.825 742.267 -250.086 722.628 -238.311C711.218 -231.47 697.11 -231.104 684.726 -226.244C637.81 -207.831 632.293 -135.188 585.577 -116.273C562.207 -106.81 532.651 -113.186 513.396 -96.91C499.445 -85.118 495.395 -64.636 481.601 -52.6611C451.99 -26.9541 397.844 -54.509 370.101 -26.795C359.457 -16.1611 354.783 -3.94299 339.445 -0.166016C322.899 3.90796 309.332 -5.80707 292.152 4.80396C277 14.1619 267.498 32.002 268.188 49.798C251.165 44.803 233.816 39.762 216.079 40.1199C198.342 40.4769 179.832 47.09 169.323 61.381C165.289 66.867 162.34 73.501 156.599 77.162C148.539 82.301 138.072 79.835 128.687 78.02C100.662 72.6019 71.2041 74.7949 44.2901 84.3019C31.1811 88.9319 18.2791 95.5789 9.56207 106.409C0.846066 117.24 -2.81796 132.974 3.43304 145.391C8.30604 155.071 18.219 161.266 28.402 164.977C77.055 182.708 131.006 153.183 182.252 160.625C216.492 165.597 248.13 186.947 282.646 184.54C287.448 184.205 292.394 183.42 296.989 184.858C303.391 186.862 307.689 192.676 312.866 196.941C327.529 209.022 348.577 208.278 367.507 206.657C430.253 201.285 493.481 177.029 556.988 184.731C582.327 187.804 596.442 203.579 619.86 213.63C647.316 225.415 678.189 229.473 707.677 224.333C755.985 215.912 799.372 183.014 820.518 138.772C818.82 142.326 886.462 141.414 892.583 140.083C918.332 134.484 940.864 122.584 961.656 106.703C1002.68 75.3719 1046.98 51.083 1087.2 17.511C1127.64 -16.248 1169.08 -51.212 1193.84 -97.7141C1234.45 -173.977 1222.87 -268.194 1192.55 -349.104C1164.07 -425.105 1069.49 -623.378 960.949 -570.745C913.598 -547.783 871.166 -489.696 835.957 -451.839C795.283 -408.107 765.482 -356.687 752.034 -298.143Z" fill="url(#paint0_linear_7_111)"/>
<path d="M182.407 135.24C209.542 138.255 242.706 147.3 275.87 141.27C306.02 135.24 345.214 120.165 345.214 80.9709C363.304 87.001 384.408 99.061 402.498 93.0309C414.558 87.0009 417.573 74.9409 414.558 59.8669C429.633 62.882 444.708 77.957 435.663 90.016C429.633 99.061 420.588 108.106 408.528 114.136C396.468 123.181 408.528 138.256 417.573 141.27C453.752 153.33 501.991 126.195 498.977 83.986C514.052 96.046 535.156 90.0159 547.216 77.9559C547.216 74.9409 547.216 68.9109 547.216 65.8959C535.156 56.851 523.096 50.821 508.022 44.791C532.142 35.746 556.261 14.6419 577.366 26.7009C589.426 32.731 601.486 50.8199 616.56 41.7759C634.65 32.731 640.68 11.627 637.665 -9.47803C664.799 20.672 631.635 56.851 640.68 90.015C646.71 102.075 667.815 108.105 685.904 102.075C716.054 90.015 734.143 62.8809 731.128 29.7159C743.188 35.746 752.233 44.791 761.278 35.746C782.383 20.671 788.412 -6.46301 785.398 -33.598C863.787 -12.493 896.951 -102.942 887.906 -166.256C945.19 -178.316 978.354 -235.6 966.295 -292.884C951.43 -371.266 907.477 -426.618 849.936 -467.379C882.194 -504.097 919.705 -550.744 960.95 -570.745C1069.49 -623.378 1164.07 -425.105 1192.55 -349.104C1222.87 -268.194 1234.45 -173.977 1193.84 -97.7141C1169.08 -51.2131 1127.64 -16.249 1087.2 17.511C1046.98 51.083 1002.68 75.3719 961.657 106.703C940.865 122.584 918.333 134.484 892.584 140.083C886.463 141.414 818.821 142.325 820.519 138.772C799.373 183.014 755.986 215.913 707.678 224.333C678.19 229.473 647.317 225.414 619.861 213.63C596.444 203.579 582.328 187.804 556.989 184.731C493.482 177.029 430.254 201.285 367.508 206.657C348.578 208.278 327.53 209.022 312.867 196.941C307.69 192.676 303.392 186.861 296.99 184.858C292.396 183.42 287.45 184.205 282.647 184.54C248.132 186.948 216.494 165.598 182.254 160.626C131.008 153.184 77.0571 182.709 28.4041 164.978C18.2221 161.267 8.30906 155.072 3.43506 145.392C1.50406 141.555 0.524041 137.402 0.342041 133.174C49.365 163.876 127.321 127.728 182.407 135.24Z" fill="url(#paint1_linear_7_111)"/>
</g>
<defs>
<linearGradient id="paint0_linear_7_111" x1="590.753" y1="-127.063" x2="965.917" y2="460.458" gradientUnits="userSpaceOnUse">
<stop stop-color="#F3B2E6"/>
<stop offset="1" stop-color="#EC4E50"/>
</linearGradient>
<linearGradient id="paint1_linear_7_111" x1="-50.7627" y1="-446.315" x2="1219.84" y2="84.5787" gradientUnits="userSpaceOnUse">
<stop stop-color="#F3B2E6"/>
<stop offset="1" stop-color="#EC4E50"/>
</linearGradient>
</defs>
</svg>
