<svg width="179" height="179" viewBox="0 0 179 179" fill="none" xmlns="http://www.w3.org/2000/svg">
<g opacity="0.61">
<path d="M89.311 74.532L93.066 4.83996C93.19 2.53296 91.421 0.561971 89.114 0.437971C86.609 0.302971 84.55 2.38797 84.715 4.88997L89.311 74.532Z" fill="url(#paint0_radial_7_153)"/>
<path d="M152.745 33.183C154.484 31.662 154.661 29.02 153.14 27.281C151.489 25.393 148.559 25.372 146.881 27.237L100.208 79.129L152.745 33.183Z" fill="url(#paint1_radial_7_153)"/>
<path d="M174.258 87.358L104.52 90.142L174.091 95.708C176.394 95.892 178.41 94.175 178.594 91.872C178.795 89.371 176.765 87.258 174.258 87.358Z" fill="url(#paint2_radial_7_153)"/>
<path d="M99.642 100.916L144.206 154.63C145.681 156.408 148.318 156.654 150.096 155.178C152.026 153.576 152.123 150.648 150.302 148.922L99.642 100.916Z" fill="url(#paint3_radial_7_153)"/>
<path d="M81.1469 174.343C80.9029 176.64 82.5669 178.7 84.8649 178.945C87.3589 179.21 89.524 177.235 89.489 174.727L88.52 104.94L81.1469 174.343Z" fill="url(#paint4_radial_7_153)"/>
<path d="M23.022 142.935C21.206 144.363 20.8921 146.993 22.3211 148.809C23.8721 150.78 26.797 150.953 28.569 149.178L77.877 99.783L23.022 142.935Z" fill="url(#paint5_radial_7_153)"/>
<path d="M4.95608 79.385C2.66608 79.081 0.563063 80.692 0.259063 82.982C-0.0709372 85.469 1.84701 87.684 4.35501 87.715L74.143 88.561L4.95608 79.385Z" fill="url(#paint6_radial_7_153)"/>
<path d="M79.5749 78.055L37.864 22.097C36.483 20.245 33.863 19.863 32.01 21.243C29.999 22.742 29.75 25.662 31.479 27.479L79.5749 78.055Z" fill="url(#paint7_radial_7_153)"/>
<path d="M109.922 46.988C110.503 45.841 110.043 44.44 108.896 43.86C107.65 43.23 106.134 43.83 105.657 45.142L92.3879 81.6489L109.922 46.988Z" fill="url(#paint8_radial_7_153)"/>
<path d="M132.316 70.461L96.908 86.434L133.97 74.804C135.197 74.419 135.879 73.113 135.494 71.886C135.077 70.554 133.589 69.887 132.316 70.461Z" fill="url(#paint9_radial_7_153)"/>
<path d="M133.984 110.496C134.646 109.267 134.086 107.736 132.787 107.225L96.637 93.011L130.83 111.441C131.961 112.051 133.374 111.628 133.984 110.496Z" fill="url(#paint10_radial_7_153)"/>
<path d="M91.736 97.406L102.398 134.758C102.751 135.994 104.039 136.711 105.276 136.358C106.619 135.975 107.324 134.505 106.783 133.217L91.736 97.406Z" fill="url(#paint11_radial_7_153)"/>
<path d="M65.855 130.666C65.216 131.782 65.602 133.204 66.718 133.844C67.929 134.538 69.4751 134.017 70.0191 132.732L85.168 96.964L65.855 130.666Z" fill="url(#paint12_radial_7_153)"/>
<path d="M41.6121 104.472C41.9601 105.824 43.412 106.568 44.712 106.061L80.902 91.9509L43.285 101.638C42.041 101.957 41.2911 103.227 41.6121 104.472Z" fill="url(#paint13_radial_7_153)"/>
<path d="M45.1281 65.993C44.4031 67.186 44.8831 68.744 46.1541 69.322L81.516 85.396L48.3271 65.213C47.2281 64.546 45.7961 64.895 45.1281 65.993Z" fill="url(#paint14_radial_7_153)"/>
<path d="M86.6379 81.2619L77.9329 43.4059C77.6449 42.1529 76.3959 41.3709 75.1419 41.6589C73.7819 41.9719 73 43.4029 73.473 44.7169L86.6379 81.2619Z" fill="url(#paint15_radial_7_153)"/>
</g>
<defs>
<radialGradient id="paint0_radial_7_153" cx="0" cy="0" r="1" gradientUnits="userSpaceOnUse" gradientTransform="translate(90.3152 77.1628) scale(83.0665 83.0658)">
<stop stop-color="#FFA3EB"/>
<stop offset="1" stop-color="#FFE9F4"/>
</radialGradient>
<radialGradient id="paint1_radial_7_153" cx="0" cy="0" r="1" gradientUnits="userSpaceOnUse" gradientTransform="translate(90.3152 77.1628) scale(83.0661 83.0661)">
<stop stop-color="#FFA3EB"/>
<stop offset="1" stop-color="#FFE9F4"/>
</radialGradient>
<radialGradient id="paint2_radial_7_153" cx="0" cy="0" r="1" gradientUnits="userSpaceOnUse" gradientTransform="translate(90.3152 77.1628) scale(83.0661 83.0662)">
<stop stop-color="#FFA3EB"/>
<stop offset="1" stop-color="#FFE9F4"/>
</radialGradient>
<radialGradient id="paint3_radial_7_153" cx="0" cy="0" r="1" gradientUnits="userSpaceOnUse" gradientTransform="translate(90.3152 77.1628) scale(83.0662 83.0662)">
<stop stop-color="#FFA3EB"/>
<stop offset="1" stop-color="#FFE9F4"/>
</radialGradient>
<radialGradient id="paint4_radial_7_153" cx="0" cy="0" r="1" gradientUnits="userSpaceOnUse" gradientTransform="translate(90.3152 77.1628) scale(83.0662 83.0658)">
<stop stop-color="#FFA3EB"/>
<stop offset="1" stop-color="#FFE9F4"/>
</radialGradient>
<radialGradient id="paint5_radial_7_153" cx="0" cy="0" r="1" gradientUnits="userSpaceOnUse" gradientTransform="translate(90.3152 77.1629) scale(83.0659 83.066)">
<stop stop-color="#FFA3EB"/>
<stop offset="1" stop-color="#FFE9F4"/>
</radialGradient>
<radialGradient id="paint6_radial_7_153" cx="0" cy="0" r="1" gradientUnits="userSpaceOnUse" gradientTransform="translate(90.3152 77.1628) scale(83.066 83.0661)">
<stop stop-color="#FFA3EB"/>
<stop offset="1" stop-color="#FFE9F4"/>
</radialGradient>
<radialGradient id="paint7_radial_7_153" cx="0" cy="0" r="1" gradientUnits="userSpaceOnUse" gradientTransform="translate(90.3151 77.1629) scale(83.0657 83.0658)">
<stop stop-color="#FFA3EB"/>
<stop offset="1" stop-color="#FFE9F4"/>
</radialGradient>
<radialGradient id="paint8_radial_7_153" cx="0" cy="0" r="1" gradientUnits="userSpaceOnUse" gradientTransform="translate(90.3152 77.1629) scale(83.0661 83.0658)">
<stop stop-color="#FFA3EB"/>
<stop offset="1" stop-color="#FFE9F4"/>
</radialGradient>
<radialGradient id="paint9_radial_7_153" cx="0" cy="0" r="1" gradientUnits="userSpaceOnUse" gradientTransform="translate(90.3152 77.1629) scale(83.0663 83.0662)">
<stop stop-color="#FFA3EB"/>
<stop offset="1" stop-color="#FFE9F4"/>
</radialGradient>
<radialGradient id="paint10_radial_7_153" cx="0" cy="0" r="1" gradientUnits="userSpaceOnUse" gradientTransform="translate(90.3152 77.1628) scale(83.066 83.066)">
<stop stop-color="#FFA3EB"/>
<stop offset="1" stop-color="#FFE9F4"/>
</radialGradient>
<radialGradient id="paint11_radial_7_153" cx="0" cy="0" r="1" gradientUnits="userSpaceOnUse" gradientTransform="translate(90.3152 77.163) scale(83.0655 83.0655)">
<stop stop-color="#FFA3EB"/>
<stop offset="1" stop-color="#FFE9F4"/>
</radialGradient>
<radialGradient id="paint12_radial_7_153" cx="0" cy="0" r="1" gradientUnits="userSpaceOnUse" gradientTransform="translate(90.3152 77.1628) scale(83.066 83.0661)">
<stop stop-color="#FFA3EB"/>
<stop offset="1" stop-color="#FFE9F4"/>
</radialGradient>
<radialGradient id="paint13_radial_7_153" cx="0" cy="0" r="1" gradientUnits="userSpaceOnUse" gradientTransform="translate(90.3152 77.1628) scale(83.0658 83.0661)">
<stop stop-color="#FFA3EB"/>
<stop offset="1" stop-color="#FFE9F4"/>
</radialGradient>
<radialGradient id="paint14_radial_7_153" cx="0" cy="0" r="1" gradientUnits="userSpaceOnUse" gradientTransform="translate(90.3153 77.1629) scale(83.0658 83.0658)">
<stop stop-color="#FFA3EB"/>
<stop offset="1" stop-color="#FFE9F4"/>
</radialGradient>
<radialGradient id="paint15_radial_7_153" cx="0" cy="0" r="1" gradientUnits="userSpaceOnUse" gradientTransform="translate(90.3151 77.1627) scale(83.0655 83.066)">
<stop stop-color="#FFA3EB"/>
<stop offset="1" stop-color="#FFE9F4"/>
</radialGradient>
</defs>
</svg>
