<svg width="1440" height="264" viewBox="0 0 1440 264" fill="none" xmlns="http://www.w3.org/2000/svg">
<path d="M1680 0.331172V263.771H-240V2.27117C-191.81 -5.06883 -138.22 7.06119 -93.12 14.8512C-41.89 23.6912 10.12 25.0912 62.31 24.5812C159.66 23.6312 257.61 16.0112 352.15 37.5712C384.69 44.9812 416.82 55.8511 450.17 56.9311C466.12 57.4411 482.11 55.7012 498.04 56.6712C520.02 58.0012 541.32 64.4711 562.65 69.9311C708.39 107.281 862.08 99.0112 1010.87 76.7912C1095.03 64.2212 1180.18 47.2312 1264.53 58.3812C1289.87 61.7312 1314.99 67.6212 1340.55 67.8412C1377.7 68.1712 1408.56 53.8712 1443.69 45.3412C1470.97 38.7212 1500.04 39.0012 1528.14 33.4612C1565.14 26.1512 1601.97 17.9712 1638.62 9.08117C1642.94 8.03117 1660.33 4.59117 1680 0.331172Z" fill="url(#paint0_linear_7_189)"/>
<defs>
<linearGradient id="paint0_linear_7_189" x1="720" y1="-45.5768" x2="720" y2="361.926" gradientUnits="userSpaceOnUse">
<stop stop-color="#6F6991"/>
<stop offset="1" stop-color="#B79AA2"/>
</linearGradient>
</defs>
</svg>
