<svg width="280" height="444" viewBox="0 0 280 444" fill="none" xmlns="http://www.w3.org/2000/svg">
<path d="M268.481 421.135C267.131 421.285 265.816 422.058 264.565 423.228C264.168 370.474 253.413 321.155 242.572 275.631C215.572 182.704 169.725 127.329 145.897 103.399C146.04 100.794 145.423 98.047 144.2 96.048C143.475 94.864 142.518 93.909 141.423 93.206C143.896 91.791 145.81 89.641 146.03 87.09C146.248 84.563 144.762 82.14 142.602 80.327C143.557 79.724 144.519 79.133 145.494 78.565C145.967 79.139 146.447 79.707 146.927 80.276C148.217 81.807 149.59 83.148 151.097 84.462C151.219 84.569 151.388 84.436 151.317 84.292C150.354 82.332 149.241 80.62 147.813 78.971C147.54 78.656 147.218 78.226 146.864 77.788C147.674 77.334 148.49 76.893 149.313 76.465C150.306 77.82 151.905 79.023 152.89 80.062C155.101 82.393 157.37 84.532 159.761 86.67C159.89 86.785 160.076 86.641 159.997 86.488C158.523 83.63 156.916 81.204 154.722 78.844C153.869 77.926 152.696 76.439 151.401 75.395C152.772 74.728 154.164 74.109 155.566 73.521C156.622 74.844 158.286 76.057 159.161 77.11C161.304 79.687 163.753 82.656 165.408 85.57C165.526 85.779 165.856 85.636 165.792 85.408C164.785 81.837 163.807 79.066 161.366 76.172C160.597 75.261 159.335 73.675 157.946 72.567C159.439 71.998 160.947 71.475 162.471 71.005C166.005 76.246 170.111 81.106 173.109 86.732C173.224 86.948 173.509 86.786 173.475 86.578C172.462 80.385 168.903 74.844 164.378 70.46C166.337 69.916 168.316 69.455 170.316 69.092C171.584 71.13 173.313 73.07 174.446 74.957C176.502 78.383 178.605 81.86 180.486 85.381C180.582 85.562 180.83 85.429 180.797 85.25C179.961 80.785 178.671 77.037 176.166 73.213C175.239 71.797 174.179 70.102 172.923 68.658C174.309 68.466 175.703 68.321 177.104 68.224C178.277 70.28 179.621 72.258 180.769 74.311C182.752 77.857 184.6 81.448 186.714 84.922C186.813 85.084 187.039 84.972 187.007 84.799C185.965 79.245 183.359 72.844 179.49 68.127C179.887 68.116 180.282 68.082 180.68 68.078C181.976 68.067 183.268 68.105 184.553 68.181C188.235 74.216 191.841 80.149 194.734 86.71C194.824 86.913 195.092 86.753 195.063 86.571C194.019 80.024 191.212 73.416 186.725 68.374C187.972 68.495 189.211 68.656 190.442 68.856C191.78 70.811 193.198 72.723 194.257 74.875C196.04 78.502 197.446 82.552 198.452 86.469C198.509 86.692 198.842 86.638 198.845 86.416C198.924 80.942 197.188 74.191 193.513 69.443C195.304 69.834 197.08 70.282 198.821 70.836C200.144 73.054 201.464 75.259 202.416 77.747C203.73 81.179 204.814 84.887 205.364 88.519C205.39 88.694 205.653 88.639 205.659 88.479C205.856 82.96 204.65 76.671 201.526 71.789C203.583 72.554 205.59 73.438 207.548 74.423C210.038 79.238 211.114 84.404 210.816 90.096C210.807 90.272 211.061 90.291 211.111 90.136C212.684 85.232 212.048 79.905 209.603 75.496C211.955 76.794 214.215 78.254 216.378 79.854C218.265 85.459 219.005 90.809 219.311 97.038C219.318 97.173 219.508 97.202 219.547 97.07C221.028 92.028 220.364 86.239 218.231 81.253C219.506 82.274 220.728 83.364 221.92 84.488C223.401 89.397 223.595 94.692 223.595 99.786C223.595 99.907 223.79 99.94 223.811 99.815C224.53 95.657 224.764 90.394 223.442 85.945C226.061 88.594 228.447 91.494 230.55 94.621C230.579 94.665 230.64 94.627 230.619 94.581C222.145 75.592 202.003 64.469 181.61 63.874C166.025 63.419 151.19 68.869 139.323 78.273C138.188 77.764 137.012 77.424 135.884 77.29C134.63 76.493 133.247 76.236 131.676 76.272C131.116 76.285 130.435 76.318 129.771 76.434C129.889 75.471 130.027 74.513 130.185 73.558C135.236 73.23 140.217 73.302 145.305 73.219C145.484 73.216 145.523 72.997 145.391 72.902C142.92 71.128 139.499 71.074 136.546 71.085C135.318 71.09 132.535 71.056 130.525 71.602C130.86 69.898 131.275 68.213 131.749 66.545C134.447 66.24 137.584 66.587 139.915 66.515C143.162 66.415 147.168 65.579 150.349 66.479C150.485 66.517 150.628 66.354 150.541 66.229C148.123 62.751 142.7 63.776 139.062 63.998C136.913 64.13 134.422 64.084 132.291 64.746C132.537 63.972 132.798 63.203 133.074 62.44C133.619 62.199 134.164 61.957 134.711 61.708C134.868 61.636 134.811 61.408 134.639 61.419C134.228 61.445 133.823 61.476 133.422 61.512C133.596 61.057 133.774 60.603 133.961 60.152C136.77 59.493 139.578 58.887 142.496 58.801C145.96 58.698 149.496 59.293 152.92 59.822C153.083 59.847 153.271 59.638 153.105 59.504C147.946 55.353 140.717 55.837 134.741 58.382C135.088 57.62 135.447 56.863 135.824 56.113C135.873 56.108 135.924 56.099 135.973 56.094C136.189 56.072 136.209 55.779 136.039 55.698C136.341 55.111 136.652 54.527 136.981 53.95C139.512 53.4 142.044 52.936 144.682 52.898C148.552 52.842 152.329 53.884 156.138 54.424C156.287 54.445 156.358 54.277 156.238 54.186C151.455 50.544 144.088 50.024 138.124 52.078C138.66 51.222 139.215 50.373 139.8 49.538C139.911 49.529 140.022 49.517 140.133 49.508C140.377 49.489 140.343 49.163 140.139 49.111C140.129 49.108 140.119 49.107 140.11 49.104C140.244 48.918 140.376 48.731 140.513 48.547C140.787 48.179 141.083 47.826 141.367 47.465C144.231 47.077 147.073 46.534 149.976 46.474C154.264 46.386 158.587 47.103 162.803 47.774C162.972 47.801 163.096 47.576 162.926 47.481C157.32 44.364 149.574 43.312 143.154 45.308C144.465 43.807 145.859 42.371 147.328 41.004C149.31 40.731 151.287 40.491 153.305 40.519C156.549 40.565 159.746 41.283 162.941 41.783C163.129 41.812 163.24 41.583 163.072 41.472C159.13 38.85 153.717 38.238 149.004 39.493C150.186 38.472 151.41 37.495 152.671 36.561C157.982 35.207 165.045 36.674 169.758 38.564C169.897 38.62 169.982 38.423 169.895 38.33C167.187 35.436 163.695 35.045 159.882 34.895C158.083 34.825 156.316 34.808 154.652 35.155C155.785 34.379 156.935 33.626 158.116 32.919C163.995 33.559 169.569 33.907 175.197 36.183C175.377 36.256 175.481 36.002 175.372 35.882C172.056 32.209 165.899 30.993 160.614 31.499C162.213 30.632 163.848 29.835 165.507 29.097C167.728 29.552 169.967 29.899 172.161 30.501C174.964 31.271 177.621 32.511 180.504 32.94C180.668 32.965 180.821 32.776 180.679 32.639C177.58 29.648 172.264 28.235 167.555 28.228C168.903 27.679 170.26 27.162 171.632 26.702C173.911 27.141 176.219 27.41 178.476 27.982C181.095 28.645 183.645 29.515 186.276 30.142C186.44 30.181 186.507 29.977 186.384 29.886C183.209 27.522 178.956 26.036 174.809 25.721C176.647 25.202 178.496 24.76 180.347 24.406C180.549 24.368 180.499 24.044 180.299 24.052C165.408 24.658 151.808 31.554 141.933 41.907C141.914 41.892 141.892 41.879 141.865 41.873C137.441 40.844 133.49 40.519 128.981 41.276C127.312 41.556 125.334 41.845 123.507 42.415C123.888 41.069 124.316 39.734 124.79 38.412C127.144 38.164 129.496 37.729 131.837 37.503C135.881 37.112 139.912 36.863 143.942 36.323C144.13 36.298 144.118 36.045 143.947 36.005C138.442 34.728 131.534 34.541 125.66 36.189C125.809 35.821 125.937 35.446 126.094 35.08C126.605 33.888 127.159 32.721 127.745 31.575C134.751 30.628 141.633 29.711 148.803 29.698C149.025 29.698 148.987 29.387 148.808 29.341C142.393 27.666 135.215 27.581 128.794 29.663C129.406 28.57 130.051 27.5 130.73 26.453C133.058 26.013 135.378 25.483 137.775 25.379C141.813 25.204 146.087 25.544 150.077 26.197C150.304 26.234 150.388 25.908 150.186 25.815C145.205 23.543 138.326 22.419 132.501 23.877C133.579 22.395 134.702 20.948 135.909 19.577C138.472 19.257 141.021 18.934 143.682 19.062C147.352 19.238 151.183 19.735 154.731 20.691C154.902 20.737 154.958 20.475 154.813 20.405C149.838 18.007 143.595 16.583 137.869 17.483C139.396 15.907 141.012 14.424 142.701 13.027C148.111 12.682 153.273 13.773 158.366 16.333C158.524 16.412 158.643 16.187 158.521 16.079C154.663 12.668 149.529 11.109 144.509 11.576C146.642 9.94299 148.888 8.46099 151.223 7.12299C157.114 7.64699 162.31 9.12002 168.137 11.343C168.263 11.391 168.366 11.228 168.261 11.14C164.24 7.75801 158.671 6.04001 153.249 5.98901C154.697 5.23101 156.186 4.55099 157.694 3.91199C162.784 4.52899 167.711 6.47802 172.376 8.52502C172.487 8.57402 172.595 8.40799 172.49 8.33899C168.971 6.00999 164.247 3.67999 159.641 3.10199C163.12 1.76899 166.734 0.748017 170.442 0.0800171C170.494 0.0710171 170.484 0 170.433 0C149.639 0.129 131.36 14.103 122.62 32.538C114.499 49.668 114.811 69.291 121.964 86.346C121.298 86.36 120.647 86.437 120.018 86.573C118.594 82.445 116.804 78.482 114.676 74.728C116.649 71.546 114.424 66.4 113.257 63.413C113.18 63.217 112.886 63.331 112.917 63.524C113.288 65.818 113.431 68.233 113.451 70.562C113.456 71.179 113.394 71.789 113.319 72.396C112.647 71.311 111.949 70.244 111.22 69.199C112.114 67.063 111.976 64.364 111.859 62.157C111.714 59.425 111.081 57.071 109.345 54.932C109.202 54.756 108.904 54.95 109.013 55.15C110.879 58.589 109.426 62.97 109.562 66.916C108.829 65.954 108.079 65.007 107.295 64.085C109.186 58.551 104.92 51.522 101.453 47.706C101.292 47.529 101.004 47.717 101.104 47.934C102.533 51.029 103.498 54.496 104.385 57.787C104.723 59.039 104.914 60.383 105.172 61.701C103.902 60.343 102.554 59.056 101.168 57.806C100.582 50.45 95.6306 42.515 89.8536 38.586C89.7596 38.522 89.6466 38.669 89.7326 38.743C94.4896 42.858 97.3136 49.725 99.2496 56.15C96.5176 53.869 93.6086 51.769 90.4926 49.916C88.7966 43.937 84.8746 39.279 79.4686 35.802C79.2506 35.662 78.9906 35.94 79.1636 36.142C82.4196 39.929 85.2516 44.135 87.8926 48.421C86.7196 47.792 85.5286 47.187 84.3076 46.623C83.8546 46.414 83.3946 46.214 82.9366 46.013C81.3846 40.093 77.5006 35.49 71.7096 32.896C71.5026 32.803 71.3296 33.088 71.4676 33.247C74.6746 36.956 77.7536 40.914 80.5376 45.009C78.8486 44.34 77.1256 43.734 75.3796 43.188C74.9136 40.708 72.8566 38.715 71.0986 36.975C68.6086 34.51 65.8446 32.804 62.7156 31.284C62.5216 31.19 62.3146 31.487 62.4736 31.635C64.5326 33.543 66.5366 35.533 68.5626 37.476C70.3766 39.216 72.3016 40.839 73.9256 42.745C71.3476 41.996 68.7226 41.387 66.0746 40.929C63.6396 35.938 55.9966 32.979 51.0676 32.398C50.9106 32.379 50.8566 32.583 50.9686 32.671C53.4196 34.59 56.2626 35.797 58.9596 37.31C60.6596 38.264 62.2966 39.373 63.8506 40.58C61.2956 40.222 58.7266 40.012 56.1626 39.953C53.0086 34.907 47.3756 33.505 41.3946 33.423C41.1886 33.42 41.0966 33.725 41.3126 33.791C45.7136 35.142 50.6876 36.991 54.4926 39.932C53.1696 39.937 51.8496 39.978 50.5356 40.067C49.5636 40.134 48.5966 40.23 47.6336 40.341C41.6146 36.982 32.5156 37.006 26.4816 39.183C26.2476 39.267 26.3456 39.617 26.5656 39.639C32.5136 40.229 39.3256 39.276 45.3456 40.644C41.3036 41.255 37.3376 42.224 33.4376 43.443C27.3426 42.043 18.5806 42.785 14.1256 47.466C13.9696 47.63 14.1286 47.928 14.3546 47.815C19.0176 45.478 24.1436 45.741 29.0526 44.923C23.4706 46.934 18.0206 49.364 12.6766 51.862C12.4156 51.984 12.5516 52.436 12.8366 52.352C20.0106 50.258 27.1566 48.31 34.2956 46.928C27.9426 50.126 21.7746 54.213 16.4266 58.296C16.2546 58.427 16.4436 58.666 16.6226 58.595C24.5326 55.455 33.2356 51.18 40.3066 45.908C42.7966 45.549 45.2876 45.277 47.7786 45.104C36.7616 49.103 27.2446 56.228 20.5576 66.244C20.3876 66.499 20.7226 66.805 20.9566 66.603C31.0616 57.831 42.0856 50.333 54.2306 44.896C56.1456 44.909 58.0626 44.995 59.9796 45.155C48.7496 48.977 39.6596 58.273 32.3576 67.26C32.2166 67.433 32.4776 67.645 32.6386 67.512C42.5736 59.298 51.9376 51.283 63.3666 45.516C66.2086 45.893 69.0536 46.453 71.9036 47.219C61.1636 50.476 51.4756 57.547 44.4716 66.088C44.3576 66.226 44.5656 66.386 44.6926 66.287C54.0436 59.028 63.9306 53.399 74.2556 47.901C76.1286 48.48 78.0046 49.143 79.8826 49.915C80.8206 50.3 81.7376 50.729 82.6556 51.155C78.8866 51.751 75.1276 53.547 71.7906 54.978C65.3316 57.749 59.9866 61.125 55.5636 66.617C55.4426 66.768 55.6466 67.017 55.8156 66.911C64.7316 61.339 74.8246 55.464 85.0426 52.32C87.1776 53.41 89.2626 54.586 91.2696 55.881C81.6106 56.23 72.0016 61.055 65.4716 67.856C65.3506 67.982 65.4736 68.206 65.6456 68.122C74.8536 63.623 84.0336 60.633 93.6276 57.491C95.4836 58.795 97.2746 60.185 99.0006 61.654C90.4646 61.481 80.2756 67.106 74.8036 71.847C74.6136 72.012 74.7606 72.394 75.0286 72.318C84.0796 69.746 92.9086 66.744 101.993 64.338C103.233 65.513 104.43 66.732 105.588 67.988C95.7376 66.527 83.2036 73.417 76.0296 78.458C75.8106 78.612 76.0026 78.993 76.2546 78.929C86.7016 76.26 96.6486 71.521 107.324 69.914C108.611 71.408 109.819 72.968 110.988 74.557C103.756 73.245 95.9316 76.692 89.7246 79.967C89.4836 80.095 89.6036 80.46 89.8726 80.42C97.2096 79.311 105.029 78.204 112.238 76.268C112.983 77.34 113.696 78.432 114.386 79.541C110.736 78.695 106.88 81.13 103.188 81.339C102.985 81.351 103.027 81.65 103.204 81.676C107.376 82.3 111.2 81.614 115.281 81.041C116.435 82.991 117.501 84.993 118.483 87.036C116.718 87.722 115.191 88.884 114.059 90.365C93.6116 78.441 65.5966 83.019 44.7356 91.442C24.7466 99.514 5.92757 113.519 0.00757076 135.152C-0.0544292 135.378 0.282593 135.467 0.355593 135.248C2.10159 129.95 4.75257 125.19 8.04657 120.908C7.48157 122.543 7.05758 124.244 6.61258 125.894C5.51558 129.962 4.30257 134.118 4.60657 138.368C4.61757 138.527 4.87258 138.584 4.90158 138.408C5.53158 134.564 7.09659 130.887 8.05359 127.106C8.84059 123.998 9.66758 120.936 10.5566 117.874C11.4056 116.917 12.2866 115.987 13.1986 115.082C10.5456 121.082 10.0026 128.581 11.4976 134.557C11.5336 134.7 11.7576 134.669 11.7536 134.522C11.6106 130.035 12.2486 125.474 13.2796 121.11C13.9216 118.391 14.9786 115.713 15.4436 112.957C17.3366 111.248 19.3336 109.637 21.4116 108.119C18.3186 114.007 18.2826 121.333 18.9446 127.775C18.9676 128.004 19.2896 128.009 19.3046 127.775C19.7956 120.28 21.0446 113.586 23.4976 106.645C24.5886 105.899 25.6966 105.176 26.8216 104.476C24.0746 110.315 23.5576 118.276 24.6896 123.888C24.7246 124.064 25.0306 124.075 25.0566 123.888C25.9976 117.004 26.5166 109.673 29.0576 103.124C30.6626 102.185 32.2956 101.296 33.9426 100.445C30.7586 106.059 30.1536 113.356 30.5796 119.522C30.5906 119.685 30.8326 119.733 30.8746 119.562C32.6636 112.259 33.7636 105.705 36.6656 99.078C39.2606 97.823 41.8826 96.669 44.4986 95.61C40.1816 101.705 38.1936 110.712 37.4446 117.153C37.4276 117.3 37.6356 117.298 37.6806 117.185C40.8076 109.378 43.7406 101.873 47.4726 94.445C47.9076 94.28 48.3426 94.114 48.7756 93.955C50.7446 93.229 52.7036 92.595 54.6576 92.002C53.1216 94.281 51.9736 97.054 50.9856 99.164C48.9656 103.479 47.6386 107.731 47.0586 112.467C47.0386 112.632 47.3086 112.703 47.3756 112.553C50.5166 105.492 53.1626 98.16 56.8296 91.353C58.6846 90.835 60.5336 90.385 62.3786 89.983C57.2586 95.312 54.3196 104.128 53.6406 110.425C53.6256 110.561 53.8456 110.619 53.9016 110.496C55.8656 106.194 57.6666 101.78 59.8776 97.598C61.5296 94.473 63.5856 91.876 65.7866 89.292C67.4936 88.984 69.1986 88.739 70.9016 88.526C67.1006 92.031 64.7536 97.448 63.4516 102.15C63.4016 102.331 63.6466 102.421 63.7436 102.273C65.6656 99.362 67.5036 96.366 69.4916 93.5C70.8306 91.569 72.4156 89.85 74.0466 88.171C75.9636 87.997 77.8806 87.9 79.7976 87.841C79.3766 88.223 78.9706 88.608 78.5876 88.974C76.5276 90.943 74.9686 93.105 73.9656 95.776C73.8166 96.172 74.3956 96.484 74.6686 96.185C76.4346 94.249 78.1136 92.209 79.9576 90.345C80.8436 89.45 81.9166 88.65 82.9096 87.788C84.1296 87.79 85.3486 87.807 86.5696 87.854C84.1896 89.831 82.2796 92.619 80.7906 95.005C80.6676 95.202 80.9456 95.404 81.1046 95.248C82.8476 93.532 84.7896 92.026 86.5896 90.368C87.4696 89.558 88.4196 88.811 89.3116 88.009C90.9886 88.119 92.6666 88.259 94.3486 88.451C92.4036 89.667 90.7646 91.712 89.9556 93.525C89.8776 93.7 90.0426 93.904 90.2296 93.799C91.6786 92.982 92.9506 92.035 94.2316 90.981C95.0706 90.291 96.0176 89.593 96.7836 88.771C102.135 89.503 107.522 90.623 112.98 92.114C112.453 93.203 112.115 94.399 112.005 95.661C105.91 96.142 99.9656 97.397 94.3006 99.366C91.5256 96.851 86.0636 98.112 82.9146 98.722C82.7086 98.762 82.7666 99.072 82.9626 99.076C85.2856 99.125 87.6876 99.419 89.9816 99.819C90.5896 99.925 91.1776 100.096 91.7616 100.279C90.5736 100.744 89.3976 101.238 88.2386 101.768C86.2986 100.504 83.6196 100.152 81.4276 99.87C78.7136 99.52 76.2846 99.718 73.8676 101.041C73.6686 101.15 73.8066 101.477 74.0216 101.407C77.7406 100.191 81.7876 102.41 85.6946 102.988C84.6166 103.536 83.5486 104.103 82.5016 104.708C77.3996 101.85 69.7166 104.779 65.3376 107.502C65.1346 107.628 65.2676 107.946 65.4996 107.886C68.8006 107.038 72.3856 106.715 75.7826 106.435C77.0756 106.328 78.4306 106.383 79.7736 106.366C77.6236 107.747 75.5716 109.288 73.5846 110.919C67.0806 109.875 60.4246 114.192 55.9636 118.534C55.7756 118.717 55.9676 119.112 56.2366 119.002C61.0356 117.04 65.7806 115.224 70.6116 113.515C68.8486 115.146 67.1376 116.847 65.5366 118.68C59.3496 119.27 54.0616 122.288 49.6666 126.979C49.4886 127.169 49.7166 127.474 49.9456 127.341C54.2566 124.821 58.9056 122.793 63.5976 120.969C62.7676 122.009 61.9576 123.072 61.1826 124.171C60.8946 124.579 60.6156 124.995 60.3356 125.41C54.2336 125.869 49.0056 128.86 45.4096 134.088C45.2806 134.275 45.5296 134.496 45.7106 134.389C49.9376 131.904 54.3846 129.588 58.9156 127.588C57.9526 129.129 57.0466 130.715 56.1946 132.333C53.6716 132.344 51.3406 134.009 49.3116 135.424C46.4376 137.429 44.2616 139.84 42.2026 142.644C42.0746 142.818 42.3306 143.075 42.5036 142.945C44.7506 141.263 47.0696 139.651 49.3466 138.009C51.3846 136.539 53.3286 134.937 55.4956 133.683C54.2936 136.084 53.2226 138.556 52.2946 141.078C46.9466 142.573 42.6576 149.557 41.1986 154.301C41.1516 154.452 41.3436 154.541 41.4496 154.447C43.7786 152.382 45.4786 149.803 47.4526 147.423C48.6976 145.923 50.0836 144.513 51.5506 143.202C50.7376 145.651 50.0686 148.14 49.5476 150.652C44.0156 152.845 41.6216 158.132 40.4626 164.001C40.4226 164.203 40.7056 164.348 40.8106 164.148C42.9336 160.063 45.6486 155.504 49.2266 152.291C48.9926 153.593 48.7956 154.899 48.6466 156.207C48.5366 157.175 48.4576 158.143 48.3926 159.111C44.0036 164.426 42.3866 173.38 43.4406 179.708C43.4816 179.953 43.8426 179.92 43.9036 179.708C45.5566 173.964 45.8466 167.092 48.2776 161.416C48.1496 165.501 48.3886 169.578 48.8836 173.633C46.4076 179.375 45.5576 188.128 49.3596 193.354C49.4926 193.537 49.8146 193.435 49.7436 193.192C48.2856 188.184 49.4676 183.19 49.5486 178.214C50.5196 184.067 51.9276 189.866 53.4216 195.573C53.4946 195.851 53.9636 195.799 53.9326 195.504C53.1666 188.07 52.5386 180.69 52.4656 173.418C54.4656 180.244 57.3746 187.048 60.4266 193.044C60.5246 193.237 60.7936 193.094 60.7556 192.905C59.0926 184.558 56.4576 175.228 52.5456 167.322C52.6416 164.808 52.8226 162.309 53.1026 159.828C55.0496 171.385 60.3416 182.031 68.9886 190.414C69.2086 190.627 69.5706 190.353 69.4136 190.086C62.6066 178.565 57.2186 166.37 54.0616 153.444C54.4196 151.563 54.8496 149.693 55.3526 147.836C57.0876 159.572 64.5926 170.188 72.1166 178.99C72.2616 179.16 72.5166 178.941 72.4156 178.759C66.1266 167.506 59.9316 156.85 56.3196 144.569C57.2026 141.842 58.2666 139.144 59.5336 136.478C60.8006 147.629 66.0096 158.434 73.1476 166.862C73.2636 166.999 73.4576 166.823 73.3836 166.68C67.9296 156.174 64.1756 145.434 60.6286 134.287C61.5356 132.549 62.5256 130.824 63.6236 129.115C64.1716 128.261 64.7586 127.438 65.3426 126.611C65.2496 130.426 66.3386 134.447 67.1446 137.987C68.7056 144.84 71.0626 150.705 75.6676 156.046C75.7936 156.193 76.0756 156.037 76.0026 155.851C72.1296 146.077 68.1696 135.09 66.9196 124.472C68.3766 122.568 69.9096 120.73 71.5446 118.989C70.1456 128.553 73.1606 138.874 78.6726 146.524C78.7746 146.665 79.0166 146.585 78.9656 146.401C76.2006 136.533 74.9136 126.964 73.5536 116.961C75.1706 115.37 76.8616 113.86 78.6176 112.426C76.9086 120.791 80.6046 131.827 84.2816 138.064C84.4096 138.281 84.8116 138.205 84.7856 137.928C83.8876 128.562 82.5266 119.336 81.7966 109.968C83.1756 108.96 84.5906 108.003 86.0346 107.09C82.8216 116.516 87.3396 130.086 91.0046 138.051C91.1166 138.294 91.5266 138.174 91.5086 137.914C90.7666 127.157 87.8986 116.519 88.2426 105.729C89.9446 104.733 91.6966 103.825 93.4706 102.961C90.8766 109.838 92.8556 118.156 94.9586 124.85C95.0406 125.111 95.4216 125.058 95.4306 124.786C95.6626 117.37 95.9836 109.479 95.3786 102.039C96.5666 101.5 97.7706 100.995 98.9846 100.516C97.4946 103.954 99.1946 108.186 98.7346 111.855C98.7096 112.057 99.0116 112.069 99.0686 111.9C100.435 107.909 100.449 104.024 100.621 99.906C104.312 98.545 108.108 97.46 111.969 96.672C111.973 97.078 112.002 97.492 112.052 97.911C107.86 97.871 104.099 100.81 103.253 105.072C102.296 109.89 104.97 116.874 109.788 117.83C113.262 118.52 116.902 115.888 119.021 112.56C119.026 112.61 119.028 112.66 119.034 112.711C119.568 117.594 124.214 123.453 129.097 122.919C133.955 122.388 137.216 115.73 136.724 110.854C136.842 110.884 136.96 110.915 137.079 110.941C149.163 122.868 167.691 144.068 185.591 176.104C211.613 222.675 241.272 301.762 240.094 419.125C238.517 417.706 236.704 416.835 234.626 416.835C223.269 416.835 220.429 431.032 220.429 431.032C220.429 431.032 227.16 420.16 233.49 426.489C239.82 432.818 239.463 442.564 239.463 442.564L243.984 442.655H244.005L254.285 442.862L264.226 443.062C264.226 443.052 264.226 443.043 264.227 443.033L265.93 443.062C265.93 443.062 265.203 432.964 268.485 429.681C271.768 426.398 279.132 428.58 279.132 428.58C279.132 428.58 276.147 420.283 268.481 421.135ZM131.151 78.024C130.564 78.291 130.01 78.62 129.497 79.004C129.522 78.713 129.54 78.421 129.568 78.131C130.109 78.098 130.65 78.037 131.151 78.024ZM122.857 44.98C125.233 44.638 127.705 43.834 129.888 43.556C133.772 43.06 137.719 42.546 141.623 42.236C139.774 44.204 138.059 46.294 136.494 48.487C131.516 48.017 126.403 49.056 121.723 50.967C122.013 48.954 122.386 46.957 122.857 44.98ZM121.456 52.933C126.115 52.087 130.706 50.861 135.389 50.095C134.271 51.775 133.238 53.509 132.3 55.292C130.147 55.175 128.091 55.327 125.744 56.021C124.6 56.359 122.641 56.878 121.069 57.704C121.147 56.107 121.274 54.517 121.456 52.933ZM120.985 60.267C122.621 59.832 124.401 58.796 125.716 58.417C127.54 57.892 129.519 57.331 131.499 56.878C130.663 58.593 129.913 60.347 129.254 62.135C128.015 62.4 126.782 62.739 125.52 63.179C124.337 63.592 122.504 64.067 121.027 64.834C120.967 63.311 120.96 61.788 120.985 60.267ZM121.167 67.177C122.807 66.812 124.551 65.832 125.898 65.347C126.773 65.032 127.633 64.703 128.487 64.367C128.037 65.771 127.64 67.192 127.306 68.63C125.802 68.798 124.348 69.096 122.858 69.557C122.46 69.68 121.937 69.803 121.393 69.951C121.304 69.026 121.228 68.102 121.167 67.177ZM123.698 70.893C124.862 70.55 125.973 70.144 127.073 69.693C126.058 74.489 125.697 79.444 126.095 84.444C126.038 84.743 125.995 85.047 125.969 85.357C125.919 85.941 125.927 86.517 125.988 87.079C125.502 86.884 124.998 86.726 124.479 86.607C123.147 81.681 122.142 76.619 121.556 71.518C122.271 71.314 122.984 71.103 123.698 70.893Z" fill="url(#paint0_linear_7_187)"/>
<defs>
<linearGradient id="paint0_linear_7_187" x1="139.564" y1="195.563" x2="139.564" y2="603.065" gradientUnits="userSpaceOnUse">
<stop stop-color="#6F6991"/>
<stop offset="1" stop-color="#B79AA2"/>
</linearGradient>
</defs>
</svg>
