<svg width="469" height="744" viewBox="0 0 469 744" fill="none" xmlns="http://www.w3.org/2000/svg">
<path d="M0 719.244C0 719.244 12.3599 715.583 17.8689 721.092C23.3779 726.601 22.157 743.548 22.157 743.548L25.0139 743.499C25.0149 743.515 25.015 743.532 25.016 743.548L41.698 743.212H41.7L58.9519 742.864L58.986 742.863L66.574 742.71C66.574 742.71 65.9749 726.355 76.5969 715.733C87.2189 705.111 98.516 723.357 98.516 723.357C98.516 723.357 93.7509 699.532 74.6919 699.532C71.2039 699.532 68.162 700.993 65.516 703.374C63.539 506.416 113.312 373.695 156.982 295.539C187.022 241.776 218.115 206.199 238.394 186.183C238.593 186.139 238.791 186.088 238.99 186.037C238.164 194.221 243.636 205.394 251.789 206.285C259.984 207.181 267.781 197.348 268.677 189.153C268.686 189.068 268.69 188.984 268.698 188.9C272.255 194.485 278.363 198.902 284.193 197.745C292.279 196.14 296.765 184.42 295.16 176.334C293.739 169.181 287.428 164.249 280.393 164.316C280.477 163.613 280.525 162.918 280.532 162.237C287.011 163.559 293.381 165.381 299.576 167.664C299.865 174.574 299.889 181.094 302.181 187.792C302.278 188.076 302.784 188.054 302.742 187.716C301.97 181.558 304.823 174.456 302.322 168.687C304.36 169.491 306.38 170.338 308.374 171.243C307.358 183.728 307.897 196.97 308.287 209.416C308.301 209.872 308.942 209.961 309.079 209.523C312.608 198.287 315.93 184.33 311.576 172.788C314.553 174.238 317.494 175.761 320.349 177.433C320.925 195.541 316.112 213.393 314.867 231.445C314.837 231.881 315.525 232.081 315.712 231.674C321.862 218.306 329.444 195.533 324.052 179.715C326.476 181.247 328.85 182.853 331.165 184.545C329.941 200.267 327.657 215.75 326.15 231.468C326.105 231.933 326.78 232.061 326.995 231.697C333.165 221.23 339.368 202.71 336.5 188.671C339.446 191.077 342.284 193.611 344.997 196.281C342.713 213.068 340.554 229.126 335.914 245.687C335.827 245.996 336.235 246.131 336.405 245.894C345.655 233.056 350.714 215.736 348.367 199.686C351.112 202.607 353.684 205.693 356.129 208.887C354.031 226.705 347.386 245.144 340.887 261.547C340.764 261.858 341.237 262.12 341.449 261.874C349.176 252.912 353.132 243.069 355.752 231.568C357.105 225.628 358.932 218.88 358.776 212.477C359.756 213.864 360.741 215.246 361.661 216.679C363.503 219.546 365.165 222.441 366.687 225.358C360.735 244.066 354.435 262.089 345.281 279.72C345.156 279.961 345.483 280.255 345.677 280.025C357.655 265.88 366.397 247.749 368.524 229.035C370.65 233.509 372.436 238.036 373.917 242.613C367.855 263.223 357.459 281.105 346.905 299.989C346.735 300.294 347.163 300.661 347.406 300.376C360.033 285.603 372.627 267.788 375.539 248.093C376.384 251.21 377.105 254.347 377.706 257.504C372.407 279.197 363.365 299.663 351.942 318.997C351.678 319.444 352.285 319.905 352.655 319.547C367.166 305.478 376.048 287.612 379.315 268.217C379.784 272.381 380.088 276.575 380.249 280.794C373.685 294.062 369.262 309.719 366.472 323.727C366.409 324.044 366.86 324.284 367.024 323.96C372.145 313.898 377.026 302.48 380.383 291.025C380.262 303.228 379.207 315.613 377.922 328.089C377.871 328.585 378.658 328.672 378.78 328.205C381.287 318.627 383.649 308.896 385.279 299.073C385.415 307.424 387.399 315.805 384.953 324.209C384.835 324.616 385.374 324.788 385.598 324.481C391.978 315.712 390.552 301.023 386.397 291.386C387.228 284.581 387.629 277.74 387.414 270.884C391.493 280.408 391.981 291.94 394.754 301.581C394.856 301.937 395.463 301.992 395.531 301.581C397.299 290.963 394.586 275.935 387.22 267.016C387.112 265.392 386.978 263.768 386.794 262.143C386.545 259.947 386.213 257.755 385.821 255.571C391.827 260.963 396.383 268.614 399.946 275.47C400.121 275.807 400.596 275.563 400.529 275.224C398.584 265.375 394.567 256.501 385.283 252.821C384.409 248.606 383.285 244.429 381.922 240.319C384.385 242.52 386.711 244.886 388.799 247.403C392.113 251.397 394.965 255.725 398.874 259.19C399.053 259.348 399.373 259.199 399.295 258.945C396.845 250.984 389.648 239.263 380.673 236.754C379.115 232.522 377.317 228.373 375.3 224.344C378.937 226.448 382.199 229.136 385.62 231.603C389.441 234.359 393.332 237.064 397.104 239.887C397.396 240.105 397.824 239.673 397.61 239.381C394.154 234.676 390.502 230.629 385.68 227.265C382.276 224.89 378.363 222.097 374.129 222.078C372.699 219.362 371.179 216.702 369.562 214.115C377.165 217.472 384.629 221.358 391.722 225.528C392.026 225.707 392.443 225.336 392.228 225.022C386.194 216.248 377.42 211.229 367.179 210.458C366.709 209.761 366.24 209.063 365.757 208.379C364.456 206.534 363.097 204.751 361.704 203.005C369.579 206.067 377.379 209.471 384.615 213.699C384.999 213.924 385.381 213.41 385.083 213.092C377.708 205.219 368.833 200.155 358.45 199.164C355.763 196.087 352.892 193.232 349.933 190.496C358.041 193.364 366.004 196.412 374.057 199.704C374.507 199.888 374.829 199.224 374.515 198.918C367.029 191.631 355.859 184.387 344.943 186.139C341.607 183.401 338.165 180.816 334.556 178.498C336.81 178.526 339.085 178.435 341.254 178.613C346.955 179.083 352.97 179.626 358.51 181.048C358.9 181.148 359.123 180.615 358.782 180.403C351.433 175.834 338.54 170.919 329.977 175.715C328.219 174.7 326.428 173.748 324.618 172.829C331.173 171.859 337.966 168.134 344.207 170.175C344.569 170.293 344.799 169.743 344.466 169.561C340.41 167.342 336.334 167.008 331.779 167.596C328.101 168.07 323.605 168.66 320.349 170.782C318.404 169.893 316.431 169.064 314.437 168.284C315.417 167.975 316.404 167.689 317.425 167.511C321.276 166.839 325.305 166.345 329.204 166.263C329.532 166.256 329.631 165.736 329.284 165.669C324 164.645 314.833 162.53 310.176 166.749C300.67 163.445 290.695 161.339 280.466 160.532C280.28 158.414 279.714 156.406 278.829 154.579C287.987 152.077 297.028 150.197 306.008 148.969C307.293 150.349 308.882 151.52 310.29 152.678C312.44 154.446 314.575 156.036 317.006 157.407C317.32 157.584 317.597 157.241 317.466 156.947C316.108 153.903 313.358 150.473 310.094 148.431C312.917 148.109 315.734 147.874 318.548 147.689C320.044 149.034 321.638 150.287 323.116 151.647C326.137 154.428 329.396 156.956 332.321 159.836C332.588 160.099 333.055 159.759 332.848 159.429C330.349 155.424 327.145 150.745 323.151 147.428C325.199 147.349 327.247 147.321 329.293 147.317C330.959 148.764 332.76 150.106 334.246 151.608C337.341 154.736 340.158 158.16 343.122 161.409C343.58 161.911 344.551 161.388 344.301 160.723C342.618 156.241 340.001 152.614 336.545 149.309C335.903 148.695 335.222 148.048 334.515 147.407C337.731 147.505 340.948 147.668 344.166 147.96C346.904 150.777 349.563 153.662 351.811 156.903C355.146 161.713 358.232 166.741 361.457 171.627C361.62 171.874 362.032 171.724 361.948 171.42C359.763 163.529 355.824 154.439 349.445 148.556C352.303 148.912 355.164 149.324 358.029 149.841C361.722 154.177 365.173 158.536 367.945 163.781C371.655 170.799 374.678 178.206 377.973 185.426C378.068 185.633 378.436 185.536 378.411 185.307C377.271 174.74 372.339 159.945 363.747 151.001C366.844 151.676 369.947 152.431 373.06 153.3C379.215 164.723 383.654 177.028 388.926 188.877C389.038 189.129 389.492 189.01 389.458 188.733C388.484 180.785 386.258 173.65 382.868 166.408C381.21 162.867 379.285 158.213 376.706 154.388C379.986 155.383 383.273 156.448 386.577 157.666C387.304 157.934 388.034 158.212 388.764 158.489C395.027 170.954 399.949 183.549 405.197 196.651C405.273 196.841 405.622 196.844 405.593 196.598C404.335 185.79 400.999 170.674 393.755 160.445C398.144 162.222 402.546 164.158 406.9 166.265C411.77 177.387 413.617 188.385 416.619 200.641C416.689 200.929 417.095 200.847 417.114 200.574C417.829 190.226 416.814 177.98 411.47 168.558C414.235 169.986 416.975 171.479 419.668 173.054C423.934 184.043 424.803 196.346 426.383 207.899C426.426 208.213 426.939 208.194 426.998 207.899C428.896 198.482 428.03 185.121 423.419 175.323C425.307 176.496 427.167 177.71 428.997 178.962C433.115 190.61 435.21 201.846 436.034 214.423C436.06 214.816 436.599 214.807 436.639 214.423C437.749 203.613 437.689 191.319 432.498 181.437C435.986 183.985 439.337 186.688 442.514 189.556C443.294 194.181 445.068 198.675 446.146 203.238C447.876 210.563 448.947 218.216 448.707 225.747C448.699 225.993 449.076 226.044 449.136 225.805C451.646 215.775 450.733 203.191 446.281 193.122C447.812 194.641 449.29 196.202 450.715 197.808C452.207 202.948 453.595 208.085 454.915 213.301C456.521 219.646 459.146 225.817 460.204 232.268C460.252 232.564 460.68 232.467 460.699 232.201C461.209 225.068 459.174 218.094 457.333 211.267C456.586 208.498 455.875 205.644 454.927 202.9C460.454 210.085 464.903 218.073 467.834 226.965C467.955 227.332 468.521 227.183 468.417 226.804C458.483 190.499 426.901 166.996 393.355 153.45C358.346 139.314 311.331 131.631 277.018 151.642C275.119 149.156 272.557 147.207 269.594 146.056C271.242 142.627 273.032 139.267 274.968 135.995C281.817 136.957 288.235 138.108 295.236 137.061C295.533 137.017 295.603 136.515 295.262 136.496C289.066 136.146 282.594 132.058 276.469 133.478C277.627 131.618 278.824 129.784 280.074 127.986C292.171 131.236 305.294 133.094 317.606 134.954C318.058 135.022 318.26 134.408 317.854 134.194C307.439 128.698 294.308 122.914 282.171 125.116C284.134 122.449 286.161 119.831 288.321 117.324C306.236 120.022 322.928 127.974 340.46 132.453C340.884 132.561 341.205 131.92 340.837 131.663C328.797 123.203 307.764 111.641 291.233 114.092C293.177 111.984 295.185 109.938 297.266 107.967C312.51 112.005 327.327 117.043 342.516 121.36C342.966 121.488 343.213 120.847 342.893 120.57C333.71 112.614 316.611 103.174 302.286 103.465C305.184 101 308.188 98.667 311.303 96.478C327.403 101.751 342.809 106.769 358.262 114.319C358.551 114.46 358.757 114.084 358.554 113.873C347.594 102.46 331.47 94.362 315.26 93.777C318.628 91.604 322.127 89.63 325.71 87.801C342.858 93.077 359.797 102.937 374.759 112.287C375.043 112.465 375.386 112.047 375.182 111.794C367.76 102.578 358.791 96.912 347.951 92.262C342.352 89.86 336.044 86.847 329.718 85.846C331.259 85.132 332.796 84.413 334.371 83.766C337.523 82.471 340.67 81.358 343.814 80.387C361.142 89.615 377.734 99.06 393.427 111.242C393.641 111.408 393.989 111.14 393.799 110.908C382.046 96.576 365.787 84.708 347.763 79.243C352.547 77.958 357.322 77.018 362.09 76.385C381.269 86.063 396.985 99.513 413.657 113.298C413.926 113.52 414.364 113.165 414.128 112.875C401.874 97.792 386.62 82.193 367.773 75.778C370.991 75.509 374.207 75.365 377.421 75.343C397.803 84.466 416.304 97.049 433.261 111.771C433.653 112.111 434.216 111.597 433.93 111.169C422.708 94.359 406.736 82.402 388.248 75.692C392.429 75.982 396.608 76.438 400.787 77.041C412.654 85.89 427.258 93.063 440.533 98.333C440.833 98.452 441.15 98.052 440.862 97.831C431.888 90.98 421.537 84.12 410.875 78.753C422.857 81.072 434.848 84.342 446.887 87.856C447.366 87.996 447.593 87.237 447.156 87.033C438.187 82.841 429.041 78.762 419.673 75.388C427.912 76.759 436.513 76.319 444.339 80.241C444.718 80.431 444.985 79.931 444.723 79.656C437.248 71.8 422.542 70.554 412.314 72.904C405.77 70.859 399.114 69.232 392.331 68.207C402.434 65.912 413.866 67.511 423.848 66.521C424.217 66.485 424.381 65.898 423.988 65.756C413.862 62.103 398.592 62.062 388.491 67.7C386.874 67.513 385.253 67.352 383.621 67.24C381.416 67.089 379.201 67.02 376.981 67.013C383.367 62.078 391.714 58.975 399.1 56.707C399.463 56.595 399.309 56.084 398.963 56.089C388.925 56.226 379.472 58.578 374.179 67.047C369.876 67.147 365.564 67.499 361.276 68.099C363.885 66.073 366.631 64.212 369.484 62.611C374.01 60.072 378.781 58.046 382.894 54.826C383.082 54.679 382.993 54.336 382.728 54.368C374.456 55.342 361.63 60.309 357.544 68.684C353.1 69.453 348.695 70.474 344.369 71.731C347.094 68.533 350.326 65.808 353.37 62.889C356.77 59.628 360.132 56.288 363.588 53.087C363.855 52.84 363.507 52.34 363.182 52.498C357.931 55.049 353.292 57.912 349.113 62.049C346.163 64.969 342.71 68.315 341.928 72.476C338.999 73.393 336.108 74.409 333.273 75.532C337.945 68.659 343.113 62.018 348.494 55.793C348.725 55.526 348.435 55.049 348.088 55.204C338.37 59.558 331.852 67.283 329.248 77.217C328.478 77.554 327.707 77.889 326.946 78.24C324.897 79.187 322.898 80.203 320.929 81.258C325.361 74.064 330.115 67.006 335.578 60.651C335.868 60.313 335.432 59.845 335.066 60.081C325.993 65.916 319.411 73.733 316.565 83.767C311.337 86.876 306.454 90.401 301.87 94.229C305.119 83.447 309.859 71.923 317.841 65.017C317.984 64.893 317.796 64.646 317.638 64.753C307.943 71.347 299.634 84.662 298.651 97.008C296.325 99.106 294.063 101.266 291.931 103.544C292.365 101.332 292.685 99.078 293.252 96.976C294.741 91.453 296.36 85.635 298.758 80.442C298.926 80.077 298.443 79.761 298.173 80.058C292.354 86.463 285.195 98.259 288.369 107.546C287.054 109.092 285.795 110.683 284.565 112.297C284.792 105.674 282.354 98.322 285.486 92.551C285.668 92.216 285.168 91.891 284.929 92.186C282.015 95.775 280.952 99.725 280.709 104.311C280.513 108.014 280.282 112.543 281.782 116.128C280.558 117.881 279.386 119.672 278.259 121.493C278.132 120.473 278.029 119.451 278.037 118.415C278.071 114.506 278.311 110.454 278.934 106.604C278.986 106.28 278.492 106.089 278.364 106.418C276.405 111.431 272.671 120.067 275.982 125.407C272.411 131.706 269.407 138.357 267.017 145.285C265.961 145.057 264.869 144.928 263.751 144.904C275.754 116.284 276.279 83.352 262.649 54.605C247.982 23.668 217.305 0.216 182.409 0C182.324 0 182.307 0.117972 182.393 0.133972C188.616 1.25597 194.681 2.96799 200.519 5.20499C192.789 6.17499 184.861 10.084 178.956 13.993C178.779 14.11 178.96 14.387 179.147 14.306C186.975 10.871 195.243 7.599 203.786 6.564C206.317 7.637 208.815 8.77899 211.245 10.05C202.144 10.135 192.8 13.019 186.051 18.694C185.874 18.843 186.048 19.116 186.259 19.035C196.037 15.305 204.758 12.833 214.644 11.953C218.562 14.198 222.33 16.686 225.911 19.426C217.487 18.642 208.872 21.258 202.396 26.982C202.192 27.162 202.392 27.541 202.656 27.408C211.203 23.111 219.865 21.279 228.944 21.859C231.778 24.205 234.489 26.694 237.053 29.338C227.445 27.829 216.968 30.218 208.619 34.243C208.376 34.36 208.47 34.8 208.757 34.723C214.71 33.119 221.139 32.285 227.299 31.989C231.765 31.775 236.043 32.316 240.344 32.853C242.37 35.155 244.255 37.582 246.064 40.07C236.29 37.624 224.744 39.509 216.386 43.322C216.046 43.477 216.188 44.024 216.569 43.962C223.266 42.866 230.438 42.295 237.215 42.589C241.237 42.763 245.131 43.654 249.038 44.392C250.177 46.149 251.259 47.944 252.286 49.779C241.511 46.284 229.465 46.427 218.699 49.238C218.399 49.316 218.335 49.837 218.708 49.838C230.741 49.859 242.29 51.399 254.048 52.987C255.032 54.911 255.961 56.87 256.819 58.87C257.083 59.485 257.297 60.114 257.547 60.732C247.689 57.966 236.095 58.279 226.857 60.423C226.569 60.49 226.549 60.914 226.865 60.956C233.629 61.862 240.393 62.28 247.18 62.936C251.109 63.316 255.056 64.046 259.006 64.462C259.802 66.681 260.52 68.92 261.159 71.18C258.093 70.224 254.774 69.739 251.973 69.269C244.406 67.999 237.776 68.543 230.352 70.27C230.308 70.28 230.271 70.302 230.238 70.327C213.667 52.953 190.843 41.381 165.853 40.363C165.518 40.349 165.434 40.892 165.773 40.957C168.879 41.551 171.983 42.293 175.067 43.164C168.106 43.692 160.97 46.186 155.642 50.153C155.436 50.307 155.549 50.648 155.823 50.583C160.238 49.53 164.518 48.071 168.913 46.958C172.701 45.998 176.573 45.547 180.398 44.81C182.7 45.583 184.979 46.45 187.24 47.371C179.338 47.382 170.417 49.753 165.216 54.773C164.978 55.003 165.234 55.319 165.51 55.278C170.348 54.559 174.808 52.477 179.512 51.185C183.194 50.174 186.953 49.591 190.679 48.828C193.462 50.066 196.206 51.403 198.89 52.859C190.02 52.011 179.688 54.051 174.122 60.215C173.94 60.417 174.114 60.843 174.416 60.72C183.86 56.901 193.215 56.317 203.081 55.243C205.062 56.428 206.992 57.692 208.894 58.995C206.102 58.413 203.136 58.439 200.117 58.558C193.718 58.809 187.858 59.466 183.314 64.322C183.168 64.479 183.31 64.808 183.543 64.715C191.452 61.543 203.306 59.082 212.218 61.353C214.333 62.921 216.387 64.561 218.371 66.274C210.462 64.168 201.379 65.195 194.763 69.595C194.482 69.782 194.668 70.166 194.983 70.117C200.345 69.279 205.71 68.073 211.155 67.996C214.542 67.948 217.86 68.352 221.186 68.81C223.652 71.104 225.992 73.513 228.191 76.032C217.416 72.683 204.417 74.448 195.01 79.679C194.725 79.837 194.934 80.215 195.217 80.17C202.292 79.045 209.547 77.841 216.743 77.989C221.614 78.089 226.384 79.002 231.19 79.652C231.667 80.258 232.163 80.851 232.623 81.468C232.854 81.777 233.076 82.09 233.3 82.403C233.284 82.407 233.267 82.41 233.251 82.414C232.908 82.502 232.851 83.049 233.261 83.08C233.448 83.094 233.634 83.114 233.821 83.13C234.802 84.531 235.733 85.955 236.633 87.392C226.624 83.944 214.262 84.817 206.235 90.929C206.034 91.082 206.153 91.364 206.403 91.328C212.795 90.421 219.133 88.673 225.627 88.767C230.054 88.831 234.302 89.609 238.551 90.533C239.103 91.501 239.624 92.481 240.131 93.467C239.845 93.603 239.879 94.095 240.241 94.132C240.324 94.141 240.409 94.155 240.492 94.164C241.125 95.423 241.729 96.693 242.31 97.971C232.28 93.7 220.15 92.886 211.492 99.853C211.214 100.077 211.529 100.429 211.803 100.387C217.549 99.5 223.483 98.502 229.297 98.674C234.193 98.819 238.906 99.835 243.62 100.941C243.933 101.698 244.232 102.459 244.524 103.223C243.851 103.163 243.171 103.111 242.481 103.067C242.193 103.049 242.097 103.432 242.36 103.552C243.278 103.971 244.193 104.376 245.107 104.781C245.571 106.063 246.009 107.353 246.422 108.651C242.845 107.54 238.666 107.617 235.059 107.396C228.954 107.022 219.852 105.303 215.794 111.139C215.648 111.349 215.889 111.623 216.117 111.558C221.456 110.046 228.178 111.449 233.627 111.618C237.539 111.739 242.804 111.156 247.331 111.669C248.126 114.468 248.822 117.295 249.384 120.156C246.011 119.241 241.34 119.296 239.279 119.289C234.322 119.27 228.581 119.362 224.435 122.338C224.213 122.497 224.279 122.865 224.579 122.87C233.118 123.009 241.478 122.888 249.954 123.439C250.22 125.042 250.451 126.65 250.648 128.266C249.532 128.07 248.39 128.015 247.45 127.994C244.814 127.934 242.493 128.364 240.388 129.702C238.495 129.925 236.523 130.497 234.617 131.351C214.702 115.57 189.805 106.424 163.651 107.187C129.427 108.186 95.6249 126.852 81.4039 158.719C81.3689 158.797 81.4709 158.86 81.5199 158.787C85.0479 153.539 89.053 148.673 93.448 144.227C91.23 151.695 91.623 160.526 92.829 167.504C92.865 167.713 93.1919 167.658 93.1919 167.455C93.1919 158.906 93.5179 150.021 96.0039 141.782C98.0039 139.895 100.054 138.067 102.194 136.352C98.615 144.72 97.5 154.435 99.985 162.896C100.05 163.118 100.37 163.068 100.381 162.842C100.894 152.389 102.136 143.41 105.303 134.004C108.933 131.318 112.726 128.867 116.673 126.69C112.57 134.089 111.503 143.029 114.143 151.259C114.226 151.518 114.653 151.488 114.638 151.192C114.138 141.639 115.942 132.971 120.122 124.89C123.409 123.238 126.778 121.755 130.229 120.47C124.986 128.662 122.963 139.216 123.293 148.478C123.302 148.747 123.743 148.839 123.788 148.545C124.712 142.449 126.532 136.227 128.736 130.468C130.334 126.293 132.55 122.593 134.77 118.87C137.692 117.94 140.672 117.189 143.677 116.533C137.509 124.5 134.596 135.83 134.728 145.016C134.734 145.389 135.292 145.48 135.388 145.106C137.076 138.533 139.435 131.736 142.427 125.649C144.203 122.037 146.584 118.828 148.829 115.547C150.895 115.21 152.974 114.941 155.067 114.737C147.536 123.199 142.826 134.287 141.074 145.275C141.025 145.581 141.476 145.849 141.627 145.508C146.481 134.498 152.533 124.541 158.712 114.413C160.869 114.285 163.037 114.222 165.212 114.24C165.881 114.246 166.543 114.302 167.209 114.321C160.715 122.237 156.343 132.979 154.593 142.299C154.539 142.59 154.919 142.778 155.084 142.506C158.632 136.676 161.734 130.65 165.061 124.699C166.988 121.254 169.242 117.933 171.211 114.484C173.562 114.647 175.902 114.889 178.228 115.212C176.121 117.636 174.343 120.48 172.786 122.856C168.582 129.275 166.416 135.565 165.014 143.057C164.958 143.357 165.374 143.58 165.536 143.277C168.694 137.367 172.223 131.532 175.673 125.783C177.573 122.616 180.476 119.361 182.603 115.94C185.958 116.549 189.28 117.322 192.567 118.236C184.973 125.592 179.001 134.892 177.301 145.284C177.244 145.633 177.722 145.905 177.915 145.543C182.947 136.102 189.837 127.946 195.768 119.15C198.324 119.939 200.855 120.817 203.361 121.772C201.031 123.631 198.912 126.292 197.622 127.821C193.526 132.676 191.884 137.327 190.195 143.32C190.087 143.703 190.641 143.942 190.84 143.592C193.617 138.701 197.728 133.719 201.324 129.394C202.793 127.628 205.584 125.592 207.357 123.372C209.711 124.359 212.045 125.397 214.347 126.517C212.174 128.27 210.207 130.766 208.774 132.306C205.091 136.265 202.396 140.336 199.921 145.133C199.789 145.389 200.101 145.631 200.317 145.438C204.33 141.85 208.138 138.26 211.848 134.348C213.502 132.605 216.184 130.586 217.851 128.311C219.232 129.03 220.601 129.769 221.96 130.531C221.366 131.267 220.825 131.987 220.367 132.517C217.97 135.285 216.102 138.158 214.487 141.447C214.369 141.688 214.652 141.911 214.857 141.732C217.386 139.526 219.69 137.276 221.855 134.707C222.66 133.752 223.465 132.798 224.259 131.835C225.896 132.789 227.51 133.78 229.113 134.792C225.488 137.835 222.994 141.902 223.36 146.142C223.73 150.423 226.941 154.03 231.092 156.405C229.254 157.584 227.647 159.186 226.431 161.174C224.378 164.529 223.344 169.139 223.583 173.51C183.596 213.67 106.655 306.599 61.345 462.548C43.151 538.947 25.1019 621.713 24.4359 710.244C22.3379 708.282 20.131 706.984 17.865 706.732C5.00299 705.307 0 719.244 0 719.244ZM250.989 131.114C251.037 131.601 251.066 132.091 251.108 132.579C250.248 131.934 249.318 131.382 248.333 130.934C249.174 130.954 250.081 131.057 250.989 131.114ZM264.154 85.526C256.3 82.318 247.72 80.576 239.366 81.364C236.74 77.683 233.862 74.175 230.759 70.873C237.31 71.394 243.934 72.257 250.452 73.089C254.116 73.556 258.263 74.906 262.251 75.48C263.042 78.797 263.669 82.149 264.154 85.526ZM265.254 96.832C262.615 95.445 259.327 94.575 257.408 94.008C253.468 92.844 250.018 92.589 246.405 92.785C244.831 89.793 243.097 86.883 241.221 84.063C249.079 85.348 256.785 87.405 264.603 88.826C264.908 91.483 265.121 94.153 265.254 96.832ZM265.324 108.799C262.845 107.514 259.77 106.715 257.784 106.022C255.666 105.283 253.597 104.715 251.518 104.27C250.413 101.269 249.153 98.325 247.751 95.447C251.072 96.208 254.393 97.148 257.455 98.029C259.662 98.664 262.649 100.402 265.394 101.133C265.437 103.686 265.424 106.241 265.324 108.799ZM264.708 117.384C263.795 117.136 262.918 116.93 262.25 116.723C259.751 115.95 257.31 115.45 254.786 115.167C254.224 112.754 253.558 110.369 252.803 108.013C254.237 108.577 255.68 109.129 257.149 109.657C259.41 110.471 262.336 112.116 265.089 112.728C264.986 114.282 264.859 115.833 264.708 117.384ZM264.438 120.013C263.455 128.573 261.769 137.068 259.532 145.335C258.661 145.535 257.815 145.801 256.999 146.128C257.1 145.185 257.115 144.219 257.03 143.238C256.985 142.718 256.914 142.208 256.818 141.706C257.487 133.315 256.88 125 255.178 116.952C257.023 117.709 258.887 118.39 260.841 118.967C262.039 119.319 263.237 119.673 264.438 120.013Z" fill="url(#paint0_linear_7_170)"/>
<defs>
<linearGradient id="paint0_linear_7_170" x1="234.215" y1="508.331" x2="234.215" y2="915.833" gradientUnits="userSpaceOnUse">
<stop stop-color="#6F6991"/>
<stop offset="1" stop-color="#B79AA2"/>
</linearGradient>
</defs>
</svg>
