<svg width="259" height="561" viewBox="0 0 259 561" fill="none" xmlns="http://www.w3.org/2000/svg">
<path d="M0 542.501C0 542.501 9.32303 539.739 13.478 543.895C17.633 548.05 16.713 560.833 16.713 560.833L18.868 560.796C18.869 560.808 18.869 560.821 18.869 560.833L31.452 560.579H31.454L44.4661 560.317L44.4921 560.316L50.215 560.201C50.215 560.201 49.763 547.865 57.775 539.853C65.787 531.841 74.308 545.603 74.308 545.603C74.308 545.603 70.714 527.633 56.338 527.633C53.707 527.633 51.413 528.735 49.417 530.531C47.926 381.971 85.468 281.863 118.407 222.912C141.066 182.36 164.518 155.525 179.814 140.428C179.964 140.395 180.114 140.356 180.263 140.318C179.64 146.491 183.767 154.918 189.917 155.59C196.098 156.266 201.979 148.849 202.655 142.668C202.662 142.604 202.665 142.541 202.671 142.477C205.354 146.69 209.961 150.021 214.359 149.148C220.458 147.937 223.842 139.097 222.631 132.998C221.56 127.603 216.799 123.883 211.493 123.933C211.556 123.403 211.592 122.879 211.598 122.365C216.485 123.362 221.29 124.736 225.963 126.458C226.181 131.67 226.199 136.588 227.928 141.64C228.001 141.854 228.383 141.838 228.351 141.583C227.768 136.938 229.921 131.581 228.034 127.23C229.571 127.836 231.095 128.475 232.599 129.158C231.833 138.575 232.239 148.563 232.533 157.951C232.544 158.295 233.027 158.362 233.13 158.032C235.791 149.557 238.297 139.029 235.013 130.324C237.258 131.418 239.476 132.566 241.63 133.827C242.065 147.485 238.434 160.951 237.495 174.567C237.472 174.896 237.991 175.047 238.133 174.74C242.772 164.657 248.491 147.48 244.424 135.549C246.252 136.705 248.043 137.916 249.789 139.192C248.866 151.051 247.143 162.729 246.006 174.585C245.972 174.936 246.482 175.032 246.643 174.758C251.297 166.863 255.976 152.894 253.812 142.305C256.034 144.12 258.175 146.031 260.222 148.045C258.499 160.707 256.871 172.819 253.371 185.311C253.306 185.544 253.613 185.646 253.742 185.467C260.719 175.784 264.535 162.719 262.764 150.613C264.834 152.817 266.775 155.144 268.619 157.553C267.037 170.993 262.025 184.901 257.122 197.273C257.029 197.508 257.386 197.705 257.545 197.52C263.373 190.76 266.357 183.335 268.333 174.661C269.354 170.181 270.732 165.091 270.614 160.262C271.353 161.308 272.096 162.351 272.79 163.431C274.18 165.594 275.433 167.777 276.581 169.977C272.091 184.088 267.34 197.682 260.435 210.981C260.341 211.163 260.587 211.384 260.733 211.211C269.768 200.542 276.362 186.866 277.966 172.75C279.57 176.124 280.917 179.539 282.034 182.991C277.462 198.536 269.62 212.025 261.659 226.269C261.531 226.499 261.854 226.775 262.037 226.561C271.561 215.418 281.061 201.98 283.257 187.125C283.894 189.476 284.438 191.842 284.891 194.224C280.894 210.587 274.074 226.023 265.458 240.606C265.259 240.943 265.717 241.291 265.995 241.021C276.941 230.409 283.64 216.933 286.104 202.304C286.458 205.445 286.687 208.608 286.809 211.791C281.858 221.798 278.522 233.609 276.417 244.174C276.369 244.413 276.709 244.594 276.834 244.35C280.697 236.76 284.379 228.148 286.91 219.508C286.819 228.713 286.023 238.054 285.054 247.464C285.015 247.838 285.609 247.904 285.701 247.552C287.592 240.328 289.374 232.987 290.603 225.579C290.706 231.878 292.202 238.199 290.357 244.539C290.268 244.846 290.674 244.976 290.843 244.744C295.655 238.13 294.58 227.05 291.446 219.781C292.073 214.648 292.376 209.488 292.213 204.317C295.29 211.501 295.657 220.199 297.749 227.471C297.826 227.739 298.284 227.781 298.335 227.471C299.668 219.462 297.622 208.127 292.066 201.4C291.985 200.175 291.884 198.95 291.745 197.724C291.557 196.068 291.307 194.415 291.011 192.767C295.541 196.834 298.978 202.605 301.665 207.776C301.797 208.03 302.155 207.846 302.105 207.59C300.638 200.161 297.608 193.468 290.605 190.692C289.946 187.513 289.098 184.362 288.07 181.262C289.927 182.922 291.682 184.707 293.258 186.606C295.757 189.619 297.909 192.883 300.857 195.497C300.992 195.617 301.234 195.504 301.175 195.312C299.327 189.307 293.899 180.467 287.129 178.574C285.954 175.382 284.598 172.252 283.077 169.213C285.82 170.8 288.281 172.827 290.861 174.688C293.743 176.767 296.678 178.807 299.523 180.936C299.743 181.1 300.066 180.774 299.904 180.555C297.297 177.006 294.543 173.954 290.905 171.416C288.337 169.624 285.386 167.518 282.192 167.503C281.113 165.455 279.967 163.448 278.747 161.497C284.481 164.029 290.111 166.96 295.462 170.106C295.692 170.241 296.006 169.961 295.843 169.725C291.292 163.107 284.674 159.322 276.949 158.74C276.594 158.215 276.241 157.688 275.877 157.171C274.896 155.78 273.87 154.434 272.82 153.117C278.759 155.427 284.643 157.994 290.101 161.183C290.391 161.352 290.679 160.965 290.454 160.725C284.891 154.787 278.197 150.967 270.365 150.22C268.339 147.899 266.173 145.746 263.941 143.682C270.056 145.846 276.063 148.144 282.137 150.628C282.477 150.767 282.72 150.266 282.482 150.035C276.836 144.538 268.41 139.074 260.177 140.396C257.661 138.331 255.064 136.381 252.343 134.633C254.043 134.654 255.759 134.585 257.395 134.72C261.695 135.074 266.232 135.484 270.411 136.557C270.705 136.632 270.873 136.23 270.616 136.071C265.073 132.625 255.348 128.917 248.889 132.535C247.563 131.77 246.212 131.051 244.847 130.358C249.791 129.626 254.915 126.817 259.622 128.356C259.895 128.445 260.069 128.03 259.817 127.893C256.758 126.219 253.683 125.968 250.248 126.411C247.474 126.769 244.083 127.214 241.627 128.814C240.16 128.144 238.672 127.518 237.168 126.93C237.907 126.697 238.652 126.481 239.422 126.347C242.327 125.84 245.366 125.468 248.307 125.406C248.554 125.401 248.629 125.009 248.368 124.958C244.382 124.186 237.468 122.59 233.956 125.773C226.786 123.281 219.262 121.693 211.546 121.084C211.406 119.487 210.979 117.972 210.312 116.594C217.22 114.707 224.039 113.289 230.813 112.362C231.782 113.403 232.981 114.286 234.043 115.16C235.665 116.494 237.275 117.693 239.109 118.727C239.346 118.861 239.554 118.601 239.456 118.38C238.432 116.084 236.358 113.497 233.896 111.957C236.025 111.714 238.15 111.537 240.272 111.397C241.401 112.412 242.603 113.357 243.717 114.382C245.996 116.48 248.454 118.386 250.66 120.559C250.861 120.757 251.213 120.501 251.058 120.252C249.173 117.231 246.756 113.702 243.744 111.2C245.289 111.14 246.833 111.119 248.377 111.116C249.634 112.207 250.992 113.22 252.113 114.353C254.448 116.713 256.572 119.295 258.808 121.746C259.153 122.125 259.886 121.73 259.697 121.228C258.427 117.848 256.454 115.111 253.847 112.619C253.363 112.156 252.849 111.668 252.316 111.185C254.742 111.259 257.168 111.382 259.595 111.602C261.66 113.726 263.666 115.903 265.361 118.347C267.877 121.975 270.204 125.767 272.637 129.453C272.76 129.64 273.071 129.526 273.007 129.297C271.359 123.345 268.388 116.488 263.577 112.051C265.733 112.32 267.891 112.631 270.052 113.02C272.837 116.291 275.441 119.578 277.531 123.534C280.329 128.828 282.61 134.415 285.095 139.86C285.167 140.016 285.444 139.943 285.426 139.77C284.566 131.799 280.846 120.64 274.365 113.894C276.701 114.403 279.042 114.972 281.389 115.628C286.032 124.244 289.38 133.526 293.356 142.463C293.44 142.653 293.783 142.563 293.757 142.354C293.022 136.359 291.343 130.977 288.786 125.515C287.536 122.844 286.083 119.334 284.138 116.449C286.612 117.2 289.091 118.003 291.583 118.922C292.132 119.124 292.682 119.334 293.233 119.543C297.957 128.945 301.67 138.445 305.628 148.327C305.685 148.47 305.948 148.473 305.927 148.287C304.978 140.135 302.462 128.733 296.998 121.018C300.309 122.358 303.629 123.819 306.913 125.408C310.586 133.797 311.979 142.093 314.243 151.337C314.296 151.554 314.602 151.493 314.616 151.287C315.155 143.482 314.389 134.245 310.359 127.139C312.444 128.216 314.511 129.342 316.543 130.53C319.76 138.819 320.416 148.099 321.608 156.813C321.64 157.05 322.028 157.036 322.072 156.813C323.504 149.71 322.851 139.632 319.373 132.242C320.797 133.127 322.2 134.042 323.581 134.987C326.687 143.773 328.267 152.248 328.889 161.734C328.908 162.031 329.315 162.024 329.345 161.734C330.183 153.58 330.137 144.307 326.222 136.854C328.853 138.776 331.381 140.815 333.776 142.978C334.364 146.466 335.702 149.856 336.515 153.298C337.82 158.823 338.628 164.595 338.447 170.276C338.441 170.461 338.726 170.5 338.771 170.32C340.664 162.755 339.975 153.263 336.618 145.668C337.772 146.813 338.888 147.991 339.962 149.202C341.087 153.079 342.134 156.954 343.13 160.888C344.341 165.674 346.322 170.329 347.12 175.194C347.156 175.417 347.479 175.344 347.493 175.143C347.878 169.763 346.342 164.502 344.954 159.353C344.391 157.265 343.854 155.112 343.139 153.042C347.308 158.462 350.664 164.487 352.874 171.193C352.965 171.47 353.392 171.357 353.314 171.072C345.821 143.688 322 125.96 296.697 115.743C270.291 105.08 234.829 99.286 208.947 114.38C207.515 112.505 205.582 111.035 203.348 110.166C204.591 107.579 205.941 105.045 207.402 102.577C212.568 103.302 217.409 104.171 222.689 103.381C222.913 103.348 222.966 102.969 222.709 102.955C218.035 102.691 213.154 99.608 208.534 100.679C209.407 99.276 210.311 97.8931 211.253 96.537C220.378 98.988 230.276 100.389 239.562 101.793C239.903 101.844 240.055 101.382 239.749 101.22C231.893 97.074 221.989 92.712 212.834 94.372C214.315 92.361 215.844 90.386 217.473 88.495C230.986 90.53 243.576 96.528 256.8 99.906C257.119 99.987 257.362 99.504 257.085 99.31C248.004 92.929 232.139 84.208 219.67 86.057C221.136 84.467 222.651 82.924 224.221 81.437C235.719 84.483 246.895 88.283 258.352 91.539C258.691 91.635 258.878 91.1521 258.637 90.9431C251.71 84.9421 238.814 77.822 228.008 78.041C230.194 76.182 232.46 74.422 234.809 72.771C246.953 76.748 258.573 80.534 270.229 86.228C270.447 86.334 270.602 86.051 270.449 85.892C262.182 77.283 250.02 71.175 237.793 70.734C240.334 69.095 242.973 67.606 245.675 66.2271C258.609 70.2061 271.386 77.644 282.671 84.696C282.885 84.83 283.144 84.515 282.99 84.324C277.392 77.373 270.627 73.099 262.45 69.591C258.227 67.78 253.469 65.506 248.698 64.752C249.86 64.214 251.02 63.671 252.207 63.183C254.584 62.206 256.958 61.367 259.329 60.634C272.399 67.594 284.914 74.719 296.751 83.907C296.912 84.032 297.175 83.83 297.031 83.655C288.166 72.845 275.902 63.893 262.307 59.771C265.915 58.802 269.517 58.093 273.114 57.616C287.581 64.916 299.434 75.061 312.01 85.459C312.213 85.627 312.543 85.359 312.365 85.14C303.122 73.763 291.617 61.997 277.401 57.159C279.828 56.956 282.254 56.8481 284.678 56.8311C300.052 63.7121 314.006 73.203 326.797 84.307C327.093 84.564 327.517 84.176 327.302 83.853C318.838 71.174 306.79 62.155 292.845 57.093C295.998 57.312 299.151 57.656 302.303 58.11C311.254 64.784 322.269 70.195 332.282 74.17C332.508 74.26 332.748 73.9581 332.53 73.7921C325.761 68.6241 317.953 63.45 309.911 59.402C318.948 61.151 327.993 63.618 337.074 66.268C337.435 66.373 337.607 65.801 337.277 65.647C330.512 62.485 323.613 59.409 316.548 56.864C322.762 57.898 329.25 57.567 335.152 60.524C335.438 60.667 335.639 60.29 335.442 60.083C329.803 54.157 318.712 53.2181 310.997 54.9901C306.061 53.4481 301.04 52.22 295.924 51.447C303.544 49.716 312.167 50.9221 319.696 50.175C319.974 50.148 320.098 49.705 319.802 49.598C312.164 46.843 300.646 46.812 293.027 51.064C291.808 50.923 290.584 50.801 289.354 50.717C287.691 50.603 286.02 50.551 284.346 50.546C289.163 46.823 295.459 44.483 301.029 42.773C301.303 42.689 301.186 42.303 300.926 42.307C293.355 42.41 286.225 44.185 282.232 50.572C278.986 50.647 275.734 50.913 272.5 51.366C274.468 49.838 276.539 48.4341 278.691 47.2271C282.105 45.312 285.704 43.784 288.806 41.355C288.948 41.244 288.88 40.986 288.681 41.009C282.441 41.744 272.767 45.49 269.685 51.807C266.333 52.387 263.011 53.157 259.747 54.106C261.803 51.694 264.24 49.639 266.536 47.437C269.1 44.977 271.636 42.458 274.243 40.044C274.444 39.857 274.182 39.481 273.937 39.6C269.976 41.524 266.477 43.684 263.325 46.804C261.1 49.007 258.495 51.53 257.906 54.669C255.697 55.361 253.516 56.127 251.378 56.974C254.902 51.79 258.8 46.781 262.859 42.085C263.033 41.884 262.815 41.5241 262.553 41.6411C255.223 44.9251 250.307 50.752 248.342 58.245C247.761 58.499 247.18 58.752 246.606 59.017C245.06 59.732 243.552 60.497 242.068 61.293C245.411 55.867 248.997 50.543 253.118 45.75C253.337 45.495 253.008 45.142 252.731 45.32C245.887 49.722 240.923 55.617 238.776 63.186C234.833 65.531 231.15 68.19 227.692 71.077C230.142 62.944 233.718 54.252 239.739 49.043C239.847 48.95 239.705 48.7631 239.585 48.8441C232.272 53.8171 226.005 63.861 225.263 73.173C223.508 74.755 221.802 76.384 220.194 78.103C220.521 76.435 220.763 74.734 221.191 73.149C222.315 68.983 223.536 64.594 225.344 60.678C225.471 60.403 225.106 60.165 224.902 60.389C220.513 65.22 215.113 74.117 217.507 81.122C216.515 82.288 215.565 83.488 214.637 84.705C214.809 79.71 212.969 74.164 215.332 69.811C215.469 69.558 215.092 69.313 214.912 69.535C212.714 72.242 211.912 75.2221 211.729 78.6801C211.581 81.4731 211.407 84.889 212.538 87.593C211.615 88.915 210.731 90.266 209.881 91.639C209.785 90.87 209.707 90.098 209.714 89.317C209.74 86.369 209.921 83.312 210.39 80.408C210.429 80.164 210.057 80.02 209.96 80.268C208.482 84.049 205.666 90.563 208.163 94.591C205.47 99.343 203.204 104.359 201.401 109.584C200.605 109.412 199.781 109.315 198.937 109.297C207.991 87.71 208.387 62.87 198.106 41.187C187.043 17.852 163.904 0.163 137.583 0C137.519 0 137.506 0.0890132 137.571 0.101013C142.265 0.947013 146.84 2.23803 151.243 3.92603C145.413 4.65703 139.432 7.60602 134.978 10.554C134.845 10.642 134.981 10.851 135.122 10.79C141.027 8.19904 147.263 5.73101 153.706 4.95001C155.615 5.76001 157.499 6.62102 159.332 7.58002C152.468 7.64402 145.42 9.81904 140.329 14.1C140.195 14.212 140.327 14.418 140.486 14.357C147.862 11.543 154.439 9.67901 161.896 9.01501C164.851 10.708 167.694 12.585 170.394 14.651C164.04 14.06 157.542 16.033 152.658 20.351C152.504 20.487 152.655 20.773 152.854 20.672C159.3 17.431 165.834 16.05 172.683 16.487C174.82 18.256 176.866 20.1341 178.799 22.1281C171.552 20.9901 163.649 22.791 157.352 25.827C157.169 25.915 157.24 26.247 157.456 26.189C161.946 24.979 166.796 24.35 171.441 24.127C174.809 23.965 178.036 24.3741 181.281 24.7791C182.809 26.5151 184.231 28.346 185.595 30.223C178.222 28.378 169.514 29.8 163.21 32.676C162.954 32.793 163.061 33.206 163.348 33.159C168.4 32.332 173.809 31.901 178.92 32.123C181.954 32.255 184.891 32.926 187.837 33.483C188.696 34.808 189.512 36.162 190.287 37.546C182.16 34.91 173.074 35.018 164.954 37.138C164.728 37.197 164.679 37.59 164.96 37.59C174.036 37.606 182.747 38.767 191.616 39.965C192.358 41.416 193.059 42.894 193.706 44.402C193.905 44.865 194.067 45.34 194.255 45.806C186.819 43.72 178.075 43.956 171.107 45.573C170.89 45.623 170.875 45.943 171.113 45.975C176.215 46.658 181.317 46.9741 186.436 47.4691C189.399 47.7551 192.377 48.306 195.356 48.62C195.956 50.294 196.498 51.983 196.98 53.687C194.667 52.966 192.164 52.6 190.051 52.246C184.343 51.288 179.343 51.699 173.743 53.001C173.709 53.009 173.682 53.025 173.657 53.044C161.158 39.939 143.942 31.2111 125.093 30.4431C124.84 30.4331 124.777 30.8421 125.032 30.8911C127.375 31.3391 129.716 31.8981 132.042 32.5551C126.792 32.9541 121.409 34.835 117.39 37.827C117.234 37.943 117.32 38.201 117.527 38.151C120.857 37.357 124.086 36.2561 127.401 35.4171C130.258 34.6931 133.179 34.353 136.064 33.797C137.8 34.38 139.519 35.034 141.225 35.729C135.265 35.738 128.536 37.526 124.613 41.312C124.433 41.485 124.627 41.7241 124.835 41.6931C128.484 41.1511 131.848 39.58 135.396 38.606C138.173 37.843 141.008 37.404 143.819 36.828C145.918 37.762 147.988 38.77 150.012 39.868C143.322 39.228 135.528 40.767 131.33 45.416C131.192 45.568 131.324 45.889 131.552 45.797C138.675 42.917 145.732 42.476 153.173 41.666C154.667 42.56 156.123 43.513 157.557 44.496C155.451 44.057 153.214 44.077 150.937 44.166C146.111 44.355 141.69 44.851 138.263 48.514C138.153 48.632 138.26 48.881 138.436 48.811C144.401 46.418 153.343 44.562 160.065 46.275C161.661 47.457 163.21 48.695 164.706 49.987C158.74 48.398 151.889 49.173 146.899 52.492C146.687 52.633 146.827 52.923 147.065 52.886C151.109 52.254 155.156 51.344 159.263 51.286C161.818 51.25 164.321 51.555 166.829 51.9C168.689 53.63 170.454 55.447 172.113 57.348C163.986 54.822 154.181 56.153 147.086 60.099C146.871 60.218 147.028 60.5041 147.242 60.4691C152.579 59.6201 158.05 58.712 163.479 58.824C167.153 58.899 170.751 59.588 174.376 60.078C174.736 60.535 175.11 60.982 175.457 61.448C175.631 61.681 175.799 61.917 175.968 62.153C175.956 62.156 175.943 62.158 175.931 62.161C175.673 62.227 175.63 62.64 175.938 62.664C176.079 62.675 176.219 62.69 176.36 62.702C177.1 63.759 177.802 64.8331 178.481 65.9171C170.932 63.3171 161.607 63.974 155.552 68.585C155.4 68.701 155.49 68.913 155.679 68.886C160.5 68.202 165.281 66.883 170.18 66.954C173.519 67.002 176.723 67.589 179.928 68.286C180.344 69.016 180.738 69.755 181.12 70.499C180.904 70.602 180.93 70.973 181.203 71.001C181.265 71.007 181.33 71.018 181.392 71.025C181.869 71.974 182.325 72.932 182.763 73.897C175.198 70.676 166.048 70.062 159.518 75.317C159.308 75.486 159.546 75.7511 159.752 75.7191C164.086 75.0501 168.562 74.297 172.947 74.427C176.64 74.536 180.195 75.303 183.75 76.137C183.986 76.708 184.212 77.282 184.432 77.858C183.924 77.812 183.411 77.773 182.891 77.741C182.674 77.727 182.601 78.016 182.8 78.107C183.493 78.423 184.182 78.728 184.872 79.034C185.222 80.001 185.552 80.974 185.864 81.953C183.166 81.115 180.014 81.173 177.294 81.006C172.689 80.724 165.823 79.427 162.763 83.83C162.653 83.988 162.835 84.195 163.006 84.146C167.033 83.006 172.103 84.064 176.213 84.191C179.164 84.282 183.135 83.843 186.55 84.229C187.149 86.341 187.675 88.473 188.099 90.63C185.555 89.94 182.031 89.982 180.477 89.976C176.738 89.962 172.408 90.031 169.28 92.276C169.113 92.396 169.162 92.674 169.389 92.677C175.829 92.782 182.135 92.691 188.528 93.106C188.728 94.315 188.903 95.528 189.052 96.747C188.21 96.599 187.349 96.5581 186.64 96.5421C184.651 96.4961 182.901 96.8211 181.313 97.8311C179.885 97.9991 178.397 98.431 176.96 99.075C161.938 87.172 143.16 80.273 123.432 80.849C97.618 81.602 72.122 95.682 61.395 119.718C61.369 119.777 61.4451 119.824 61.4821 119.769C64.1431 115.811 67.164 112.14 70.479 108.787C68.806 114.42 69.103 121.081 70.012 126.344C70.039 126.502 70.286 126.46 70.286 126.307C70.286 119.859 70.532 113.157 72.407 106.943C73.916 105.52 75.4621 104.141 77.076 102.848C74.3761 109.16 73.535 116.487 75.41 122.869C75.459 123.036 75.7 122.999 75.709 122.829C76.096 114.945 77.032 108.172 79.421 101.077C82.159 99.051 85.0201 97.203 87.9971 95.56C84.9021 101.141 84.097 107.884 86.089 114.091C86.152 114.287 86.474 114.264 86.462 114.041C86.085 106.835 87.446 100.297 90.598 94.202C93.077 92.956 95.6181 91.837 98.2211 90.868C94.2671 97.047 92.74 105.007 92.99 111.994C92.997 112.197 93.33 112.266 93.363 112.045C94.06 107.447 95.432 102.754 97.095 98.41C98.3 95.261 99.971 92.47 101.646 89.662C103.85 88.9611 106.098 88.3941 108.365 87.899C103.713 93.909 101.515 102.454 101.615 109.383C101.619 109.665 102.04 109.733 102.113 109.451C103.386 104.493 105.165 99.366 107.423 94.775C108.763 92.05 110.558 89.63 112.252 87.156C113.81 86.902 115.379 86.699 116.957 86.545C111.277 92.927 107.724 101.291 106.403 109.579C106.366 109.81 106.706 110.012 106.82 109.755C110.481 101.451 115.046 93.94 119.707 86.301C121.334 86.205 122.969 86.157 124.61 86.17C125.114 86.174 125.614 86.217 126.117 86.231C121.219 92.202 117.921 100.304 116.601 107.334C116.56 107.553 116.847 107.696 116.972 107.49C119.648 103.092 121.987 98.548 124.498 94.059C125.951 91.46 127.652 88.956 129.137 86.354C130.911 86.477 132.675 86.66 134.43 86.903C132.84 88.731 131.499 90.876 130.325 92.669C127.154 97.51 125.521 102.255 124.463 107.906C124.421 108.133 124.734 108.301 124.857 108.072C127.239 103.614 129.901 99.213 132.503 94.877C133.936 92.488 136.125 90.033 137.73 87.452C140.261 87.912 142.766 88.494 145.246 89.183C139.518 94.731 135.013 101.746 133.731 109.585C133.688 109.848 134.049 110.054 134.194 109.78C137.989 102.659 143.186 96.507 147.66 89.873C149.588 90.468 151.497 91.13 153.387 91.85C151.629 93.252 150.031 95.259 149.058 96.413C145.968 100.075 144.73 103.583 143.456 108.103C143.375 108.392 143.793 108.572 143.942 108.308C146.037 104.619 149.137 100.861 151.85 97.599C152.958 96.267 155.064 94.731 156.401 93.057C158.176 93.801 159.937 94.585 161.673 95.429C160.034 96.751 158.55 98.634 157.47 99.795C154.692 102.781 152.659 105.852 150.793 109.47C150.693 109.663 150.929 109.846 151.091 109.7C154.118 106.993 156.99 104.286 159.789 101.335C161.036 100.02 163.06 98.497 164.317 96.782C165.358 97.324 166.391 97.8821 167.417 98.4561C166.969 99.0111 166.561 99.555 166.216 99.954C164.408 102.042 162.999 104.209 161.781 106.689C161.692 106.871 161.905 107.039 162.06 106.904C163.967 105.24 165.705 103.543 167.338 101.606C167.945 100.886 168.552 100.166 169.151 99.44C170.385 100.16 171.604 100.907 172.812 101.67C170.078 103.965 168.197 107.033 168.473 110.231C168.752 113.46 171.174 116.181 174.305 117.972C172.919 118.861 171.707 120.07 170.789 121.569C169.241 124.099 168.46 127.577 168.641 130.874C138.48 161.166 80.445 231.259 46.269 348.888C32.546 406.514 18.9321 468.942 18.4301 535.718C16.8471 534.238 15.183 533.259 13.474 533.069C3.774 531.989 0 542.501 0 542.501ZM189.314 98.89C189.35 99.257 189.372 99.627 189.404 99.995C188.755 99.509 188.054 99.093 187.311 98.754C187.945 98.77 188.63 98.847 189.314 98.89ZM199.245 64.505C193.321 62.086 186.849 60.771 180.548 61.3651C178.567 58.5891 176.397 55.943 174.056 53.452C178.998 53.845 183.993 54.496 188.91 55.123C191.673 55.476 194.801 56.494 197.809 56.926C198.406 59.429 198.879 61.957 199.245 64.505ZM200.074 73.032C198.084 71.986 195.604 71.329 194.156 70.902C191.184 70.024 188.582 69.832 185.857 69.979C184.67 67.722 183.362 65.527 181.947 63.4C187.874 64.369 193.686 65.921 199.584 66.993C199.813 68.998 199.974 71.012 200.074 73.032ZM200.127 82.058C198.257 81.088 195.938 80.4861 194.44 79.9641C192.842 79.4071 191.282 78.978 189.714 78.643C188.881 76.379 187.931 74.159 186.873 71.988C189.378 72.562 191.883 73.271 194.193 73.936C195.858 74.415 198.11 75.726 200.181 76.277C200.212 78.202 200.202 80.129 200.127 82.058ZM199.662 88.534C198.974 88.347 198.312 88.192 197.808 88.036C195.923 87.453 194.082 87.075 192.178 86.862C191.754 85.042 191.252 83.243 190.683 81.466C191.764 81.892 192.853 82.3081 193.961 82.7061C195.666 83.3201 197.874 84.561 199.95 85.022C199.872 86.194 199.776 87.364 199.662 88.534ZM199.458 90.517C198.717 96.973 197.445 103.381 195.758 109.616C195.101 109.767 194.462 109.967 193.847 110.214C193.923 109.503 193.934 108.774 193.87 108.034C193.836 107.642 193.782 107.257 193.71 106.879C194.215 100.55 193.757 94.278 192.473 88.207C193.864 88.778 195.271 89.2921 196.745 89.7271C197.649 89.994 198.552 90.26 199.458 90.517Z" fill="url(#paint0_linear_7_188)"/>
<defs>
<linearGradient id="paint0_linear_7_188" x1="176.662" y1="254.44" x2="176.662" y2="661.942" gradientUnits="userSpaceOnUse">
<stop stop-color="#6F6991"/>
<stop offset="1" stop-color="#B79AA2"/>
</linearGradient>
</defs>
</svg>
