<svg width="1124" height="126" viewBox="0 0 1124 126" fill="none" xmlns="http://www.w3.org/2000/svg">
<path opacity="0.53" d="M753.386 103.297C776.493 106.753 799.694 109.722 822.835 113.316C874.878 121.398 837.077 127.779 765.411 124.702C683.834 121.199 601.015 121.52 519.731 113.903C539.674 110.225 559.866 107.23 579.915 103.936C582.159 103.567 584.591 103.098 586.091 101.388C588.547 98.5858 586.967 93.8538 583.891 91.7518C580.815 89.6498 576.868 89.4448 573.145 89.3108C490.583 89.3108 407.2 84.1698 324.743 79.9968C378.925 77.3268 433.135 75.1228 487.328 72.6928C490.574 72.5468 494.362 72.0938 496.016 69.2968C497.971 65.9918 495.258 61.5148 491.647 60.2098C483.327 57.2048 470.965 59.4568 462.029 58.1568C450.626 56.4978 439.209 54.9348 427.779 53.4658C337.294 41.8408 246.042 36.1848 154.814 36.5598C121.834 36.6998 87.644 37.3898 57.454 24.1198C147.064 15.4098 237.354 18.4998 327.334 21.5998C247.944 18.5498 168.544 15.4998 89.154 12.4598C59.154 11.3098 28.754 10.0898 0.0540161 1.26984C2.65402 1.03984 5.25404 0.809844 7.86404 0.589844H1105.73C1110.79 2.45984 1114.82 5.71982 1114.2 10.7498C1055.28 12.8498 996.374 14.9598 937.454 17.0598C999.174 22.6198 1061.4 22.4498 1123.08 16.5598C1062.49 47.9498 990.574 46.3098 922.604 40.2698C854.634 34.2398 784.954 24.6798 719.064 42.4398C773.734 49.2898 828.394 56.1398 883.054 62.9798C910.089 66.3628 951.974 67.9118 973.518 84.8638C931.16 83.8218 888.857 81.1018 846.551 78.9278C813.753 77.2428 780.972 75.2478 748.186 73.3428C729.769 72.2728 682.828 64.3428 673.467 86.7518C698.676 96.5408 726.832 99.3258 753.386 103.297Z" fill="url(#paint0_linear_7_116)"/>
<defs>
<linearGradient id="paint0_linear_7_116" x1="561.57" y1="-110.999" x2="561.57" y2="139.895" gradientUnits="userSpaceOnUse">
<stop stop-color="#EC4E50"/>
<stop offset="1" stop-color="#FDAAEC"/>
</linearGradient>
</defs>
</svg>
